<?xml version="1.0" encoding="UTF-8" standalone="no"?>
<!-- Created with Inkscape (http://www.inkscape.org/) -->
<svg xmlns:dc="http://purl.org/dc/elements/1.1/" xmlns:cc="http://creativecommons.org/ns#" xmlns:rdf="http://www.w3.org/1999/02/22-rdf-syntax-ns#" xmlns:svg="http://www.w3.org/2000/svg" xmlns="http://www.w3.org/2000/svg" xmlns:sodipodi="http://sodipodi.sourceforge.net/DTD/sodipodi-0.dtd" xmlns:inkscape="http://www.inkscape.org/namespaces/inkscape" width="343pt" height="340pt" id="svg4951" version="1.1" inkscape:version="0.47 r22583" sodipodi:docname="Zierikzee_wapen.svg">
  <defs id="defs4953">
    <inkscape:perspective sodipodi:type="inkscape:persp3d" inkscape:vp_x="0 : 212.5 : 1" inkscape:vp_y="0 : 1000 : 0" inkscape:vp_z="428.75 : 212.5 : 1" inkscape:persp3d-origin="214.375 : 141.66667 : 1" id="perspective4960"/>
    <inkscape:perspective id="perspective4970" inkscape:persp3d-origin="0.5 : 0.33333333 : 1" inkscape:vp_z="1 : 0.5 : 1" inkscape:vp_y="0 : 1000 : 0" inkscape:vp_x="0 : 0.5 : 1" sodipodi:type="inkscape:persp3d"/>
    <inkscape:perspective id="perspective5993" inkscape:persp3d-origin="0.5 : 0.33333333 : 1" inkscape:vp_z="1 : 0.5 : 1" inkscape:vp_y="0 : 1000 : 0" inkscape:vp_x="0 : 0.5 : 1" sodipodi:type="inkscape:persp3d"/>
  </defs>
  <sodipodi:namedview pagecolor="#ffffff" bordercolor="#666666" borderopacity="1.0" inkscape:pageopacity="0.0" inkscape:pageshadow="2" inkscape:zoom="0.56568543" inkscape:cx="282.42118" inkscape:cy="175.88127" inkscape:document-units="pt" inkscape:current-layer="layer1" id="namedview4955" showgrid="false" inkscape:window-width="1024" inkscape:window-height="718" inkscape:window-x="-8" inkscape:window-y="-8" inkscape:window-maximized="1"/>
  <metadata id="metadata4957">
    <rdf:RDF>
      <cc:Work rdf:about="">
        <dc:format>image/svg+xml</dc:format>
        <dc:type rdf:resource="http://purl.org/dc/dcmitype/StillImage"/>
        <dc:title/>
      </cc:Work>
    </rdf:RDF>
  </metadata>
  <g inkscape:label="Layer 1" inkscape:groupmode="layer" id="layer1">
    <path style="fill:#d40000;fill-opacity:1;stroke:#000000;stroke-width:0.35967791px;stroke-linecap:butt;stroke-linejoin:miter;stroke-opacity:1" d="m 115.78644,96.384987 -0.52681,194.696693 4.74134,17.21404 14.22395,19.58839 17.91168,10.68456 26.86752,8.90381 25.81387,8.31027 13.17034,8.31022 10.00948,-8.9038 30.02838,-8.90387 28.97476,-8.31018 21.07255,-18.40124 9.48266,-18.4012 1.05363,-14.24611 0.52682,-191.135153 -203.35017,0.59357 z" id="path4362"/>
    <path id="path2743-1-2" d="m 277.247,97.059972 c -1.91349,-0.60351 0.16924,0.023 0.16924,0.023 -0.52445,-0.21494 -1.46568,0.0804 -2.00435,-0.11793 l -4.73901,-0.3818 -0.92514,-0.42989 -106.17566,0 -0.86144,0.69255 -6.56284,0.14319 c -1.37505,0.73577 -4.97863,0.90221 -6.26141,-0.23862 l -1.75383,-0.0477 -0.67717,-0.54938 -33.36707,0 c -0.41827,0 -0.75132,0.39683 -0.75132,0.87632 l 0,193.473258 c 0,11.01176 5.05328,22.82535 14.23839,33.21706 9.24898,10.4991 21.15578,18.03854 34.48711,21.51895 20.38328,5.29915 46.94675,12.64033 53.25444,21.10578 0.33303,0.4298 1.16238,0.52073 1.50241,-0.016 6.96693,-10.6728 36.36525,-16.5754 53.55927,-21.08926 15.7198,-4.14179 25.24512,-11.01985 34.50113,-21.51894 9.17113,-10.39166 14.2244,-22.20534 14.2244,-33.217 l 0,-193.473328 c 0,-0.47948 -0.32606,-0.87629 -0.74417,-0.87629 l -33.09092,0 -0.30978,0.64934 c -1.17138,1.19951 -1.89143,1.57943 -0.69871,0.16236 l -1.46143,0.23863 c -1.05598,0.95068 -3.20072,0.77748 -5.1284,0.1905 l -0.42374,-0.33422 z m 39.51118,1.82961 0,191.613208 c 0,19.98972 -19.29179,45.23729 -47.69085,52.42136 -26.37914,6.66318 -45.81972,11.11073 -52.81499,20.21293 l -0.45343,-0.0992 c -10.48228,-10.32555 -27.01005,-13.16119 -53.40335,-20.19645 -23.99786,-6.40696 -46.7056,-30.91036 -46.7056,-52.33856 l 0,-191.613218 201.06822,0" style="fill:#000000" sodipodi:nodetypes="cccccccccccccccccccccccccccccccccccccc"/>
    <path style="fill:#ffee00;fill-opacity:1;stroke:#000000;stroke-width:1.27608252px;stroke-linecap:butt;stroke-linejoin:miter;stroke-opacity:1" d="m 31.023531,247.21631 c -19.323145,23.59449 -6.815218,65.65365 12.683831,96.36769 24.657099,27.88682 49.078602,33.80553 75.088268,46.69364 7.33819,5.29857 12.10147,10.59711 12.68384,15.89568 4.2123,-2.99062 4.86061,-8.3076 5.07351,-13.90872 11.83825,4.13983 23.67648,-0.0889 35.51472,-6.45763 l 18.26472,9.93479 9.13237,-14.90221 c -4.42274,-8.82922 -14.37495,-11.34232 -26.88972,-10.9283 l 1.52206,5.46416 -24.35296,6.45763 -44.13972,-10.9283 -27.397071,-18.3794 -29.426491,-26.32726 13.698537,-0.49675 17.757361,1.49023 5.073539,-3.97392 -7.61029,-4.47067 -8.625021,-12.41851 -0.507348,-14.40548 -6.088241,-12.41853 3.044125,-3.47719 -18.264715,-9.43807 -9.639714,-17.88267 -6.59559,-1.49021 z" id="path3805-3" sodipodi:nodetypes="ccccccccccccccccccccccccc"/>
    <path style="fill:#ffeb00;fill-opacity:1;stroke:#000000;stroke-width:1.3660183px;stroke-linecap:butt;stroke-linejoin:miter;stroke-opacity:1" d="m 176.47608,54.649734 39.79537,-40.86133 41.21664,37.177099 -41.21664,38.51682 -39.79537,-34.832589 z" id="path2836-1"/>
    <path style="fill:#d3aa00;fill-opacity:1;stroke:#000000;stroke-width:1.3660183px;stroke-linecap:butt;stroke-linejoin:miter;stroke-opacity:1" d="m 188.91213,49.62581 23.09553,-0.334931 0,-22.440226 -23.09553,22.775157 z" id="path2838-9" sodipodi:nodetypes="cccc"/>
    <path style="fill:#d3aa00;fill-opacity:1;stroke:#000000;stroke-width:1.3660183px;stroke-linecap:butt;stroke-linejoin:miter;stroke-opacity:1" d="m 243.80843,49.960733 -23.09554,-0.334923 0,-22.44025 23.09554,22.775173 z" id="path2838-1-8" sodipodi:nodetypes="cccc"/>
    <path style="fill:#d3aa00;fill-opacity:1;stroke:#000000;stroke-width:1.3660183px;stroke-linecap:butt;stroke-linejoin:miter;stroke-opacity:1" d="m 244.16373,54.984665 -23.09552,0.334918 0,22.440242 23.09552,-22.77516 z" id="path2838-1-7-6" sodipodi:nodetypes="cccc"/>
    <path style="fill:#d3aa00;fill-opacity:1;stroke:#000000;stroke-width:1.3660183px;stroke-linecap:butt;stroke-linejoin:miter;stroke-opacity:1" d="m 189.44512,55.989445 23.09551,0.334924 0,22.440236 -23.09551,-22.77516 z" id="path2838-1-7-4-5" sodipodi:nodetypes="cccc"/>
    <path style="fill:#ffff00;stroke:#000000;stroke-width:1.3660183px;stroke-linecap:butt;stroke-linejoin:miter;stroke-opacity:1" d="m 207.90741,11.266008 c 2.96128,-5.1974818 9.94296,-5.1303728 12.79138,-3.2655448 5.15083,2.7775128 4.9653,7.7591768 2.75371,11.6387798 -3.46745,4.882966 -9.54733,4.171541 -12.70255,2.595695 -3.82146,-2.978731 -4.83542,-7.781198 -2.84254,-10.96893 z" id="path2832-0-0" sodipodi:nodetypes="ccccc"/>
    <path style="fill:#808000;stroke:#000000;stroke-width:1.3660183px;stroke-linecap:butt;stroke-linejoin:miter;stroke-opacity:1" d="m 176.47608,54.984665 2.84254,6.028699 35.53158,35.502488 43.70382,-40.52639 -0.35529,-4.689023 -41.21664,37.512022 -40.50601,-33.827796 z" id="path3731-2" sodipodi:nodetypes="ccccccc"/>
    <path style="fill:#ffff00;stroke:#000000;stroke-width:1.3660183px;stroke-linecap:butt;stroke-linejoin:miter;stroke-opacity:1" d="m 168.11203,50.787632 c 2.96129,-5.197501 9.94295,-5.130404 12.79137,-3.265575 5.15084,2.777539 4.96533,7.759187 2.75371,11.638777 -3.46744,4.882969 -9.54733,4.171557 -12.70253,2.5957 -3.82148,-2.978729 -4.83544,-7.781164 -2.84255,-10.968902 z" id="path2832-5-8" sodipodi:nodetypes="ccccc"/>
    <path style="fill:#ffff00;stroke:#000000;stroke-width:1.3660183px;stroke-linecap:butt;stroke-linejoin:miter;stroke-opacity:1" d="m 250.5453,47.438348 c 2.96129,-5.197489 9.94296,-5.130404 12.79139,-3.265561 5.15084,2.777537 4.96533,7.75918 2.7537,11.638776 -3.46744,4.88297 -9.54733,4.171558 -12.70255,2.595694 -3.82148,-2.978722 -4.83543,-7.781171 -2.84254,-10.968909 z" id="path2832-7-6" sodipodi:nodetypes="ccccc"/>
    <path style="fill:#ffff00;stroke:#000000;stroke-width:1.3660183px;stroke-linecap:butt;stroke-linejoin:miter;stroke-opacity:1" d="m 208.61808,85.955163 c 2.96126,-5.197489 9.94291,-5.130375 12.79134,-3.265551 5.15083,2.77751 4.96533,7.759186 2.75372,11.63879 -3.46745,4.88296 -9.54733,4.17153 -12.70256,2.59569 -3.82147,-2.97873 -4.83542,-7.781192 -2.8425,-10.968929 z" id="path2832-52-0" sodipodi:nodetypes="ccccc"/>
    <path style="fill:#ffde00;fill-opacity:1;stroke:#000000;stroke-width:1.27608252px;stroke-linecap:butt;stroke-linejoin:miter;stroke-opacity:1" d="m 194.1151,88.308606 c 2.52928,-9.043231 1.97394,-16.732627 -13.12672,-18.038084 -6.22264,0.61784 -11.48998,2.950436 -14.0479,10.14642 -1.78037,6.744404 -0.0701,18.30559 10.13292,18.71451 6.06439,0.30949 12.12876,0.75988 18.19316,-0.67641 l 2.30292,2.254738 3.6847,-0.67641 c 1.84925,-2.407338 1.22682,-4.008008 1.38175,-5.862388 -1.44483,-4.003503 -4.6299,-5.451301 -8.52083,-5.862376 z" id="path3775-24" sodipodi:nodetypes="ccccccccc"/>
    <path style="fill:none;stroke:#000000;stroke-width:1.27608252px;stroke-linecap:butt;stroke-linejoin:miter;stroke-opacity:1" d="m 193.65452,88.083132 c -5.96316,6.72477 -14.18478,5.51023 -17.73259,0.901911 -1.58008,-2.986597 -1.93717,-5.881086 0.46059,-8.568101 1.36595,-1.925412 3.26151,-2.295234 5.06644,-2.931187 3.07628,-0.05002 4.29132,1.028135 4.14529,2.931187 -0.11865,2.119309 -1.87284,2.11984 -2.53323,2.029287 -2.7587,-0.243336 -2.45932,-1.236388 -2.07264,-2.029287 0.76764,-1.177572 1.47771,-0.238262 2.24535,-0.338201" id="path3777-8" sodipodi:nodetypes="cccccccc"/>
    <path style="fill:#ffdb00;fill-opacity:1;stroke:#000000;stroke-width:1.27608252px;stroke-linecap:butt;stroke-linejoin:miter;stroke-opacity:1" d="M 167.07539,80.084393 147.13527,68.241241 130.32389,37.801967 91.404318,38.478405 C 89.004246,74.8739 68.076614,101.37485 27.463774,117.36301 l 2.605465,28.06068 c 46.026344,29.16256 64.120989,68.09516 67.742227,93.74815 -14.906459,-7.11764 -30.416711,-5.66143 -28.660177,19.13228 5.62591,13.28509 15.956556,13.90273 26.706067,13.39261 C 119.21815,260.13086 112.22617,241.27282 112.14154,237.25862 96.265994,191.49444 70.86798,163.21144 41.142484,142.87271 L 40.491107,118.63849 C 66.511436,104.96602 91.085376,88.461258 101.71966,44.660357 l 21.49514,-0.637746 18.23829,28.060672 25.15907,16.820451 c -0.74651,-3.607813 0.24762,-6.403167 0.46323,-8.819341 z" id="path3779-6" sodipodi:nodetypes="ccccccccccccccccc"/>
    <path style="fill:none;stroke:#000000;stroke-width:1.27608252px;stroke-linecap:butt;stroke-linejoin:miter;stroke-opacity:1" d="m 98.788516,239.96904 c 1.07732,4.51733 1.819764,9.03468 0.32568,13.55203 -3.449163,3.64343 -7.576622,4.29834 -11.887457,4.14533 -5.226707,-1.62179 -5.583463,-5.03161 -7.653573,-7.81236 0.164285,-3.26382 1.682094,-5.77039 4.885254,-7.33404 4.126714,-0.0972 6.491158,1.87591 8.467779,4.30476" id="path3781-5" sodipodi:nodetypes="cccccc"/>
    <path style="fill:#808000;stroke:#000000;stroke-width:1.27608252px;stroke-linecap:butt;stroke-linejoin:miter;stroke-opacity:1" d="m 101.99781,45.017213 -0.46058,10.371885 14.73877,-0.676423 7.13906,-10.597378 -21.41725,0.901916 z" id="path3783-0"/>
    <path style="fill:#ebc100;fill-opacity:1;stroke:#000000;stroke-width:1.27608252px;stroke-linecap:butt;stroke-linejoin:miter;stroke-opacity:1" d="m 114.66394,54.712675 c -0.42571,8.610919 -0.95544,17.228612 7.59969,25.253325 3.58565,5.896316 1.53637,10.873128 1.84233,16.234272 7.6206,-3.09008 10.08353,-13.333998 10.36318,-26.606175 0.96493,9.343108 -3.28642,19.15051 3.68469,27.959035 5.42894,4.658938 7.41345,1.89871 9.90262,0.22547 -2.65673,-5.243473 -1.34681,-8.156737 -1.15146,-11.724752 2.86729,4.284049 2.83056,8.568082 8.98142,12.852132 5.60149,1.801548 8.23045,0.69273 11.51467,0.22547 -3.4975,-3.29291 -8.23118,-6.18239 -8.29055,-10.597368 3.32101,2.840043 4.93712,0.672364 7.13907,0.225486 l -24.87166,-16.45976 -17.96288,-27.508076 -7.59965,10.146411 -1.15147,-0.22547 z" id="path3785-9" sodipodi:nodetypes="ccccccccccccccc"/>
    <path style="fill:#eac400;fill-opacity:1;stroke:#000000;stroke-width:1.27608252px;stroke-linecap:butt;stroke-linejoin:miter;stroke-opacity:1" d="m 101.76752,44.566255 c 0.16827,6.260581 -1.20582,12.143619 1.15147,18.939986 4.42722,7.685852 3.7071,15.638187 2.7635,22.773083 -4.29827,4.734994 -3.1725,9.469988 -3.45439,14.204996 -5.308764,-2.500148 -8.639439,-7.905389 -11.514662,-13.979523 8.568208,15.697773 6.939278,24.531643 5.987628,33.821423 -11.730029,-0.72186 -11.87017,-16.12868 -13.5873,-29.537374 1.060329,12.795274 5.928339,25.982974 -3.914979,37.654494 C 65.808131,119.58549 71.497174,107.50684 75.283794,95.749312 88.416411,81.217095 97.838636,64.505227 101.76752,44.566255 z" id="path3787-0" sodipodi:nodetypes="cccccccccc"/>
    <path style="fill:#808000;stroke:#000000;stroke-width:1.27608252px;stroke-linecap:butt;stroke-linejoin:miter;stroke-opacity:1" d="m 41.200405,138.36431 9.211734,0.45095 0.921169,-14.20501 C 65.542275,115.27702 66.112328,113.4552 71.368807,109.0524 L 75.053503,95.974802 C 63.993493,104.29997 52.865684,112.426 41.200405,118.97336 l 0,19.39095 z" id="path3791-0" sodipodi:nodetypes="ccccccc"/>
    <path style="fill:none;stroke:#000000;stroke-width:1.27608252px;stroke-linecap:butt;stroke-linejoin:miter;stroke-opacity:1" d="m 41.200405,118.52239 11.054073,6.08786" id="path3793-6"/>
    <path style="fill:#eabd00;fill-opacity:1;stroke:#000000;stroke-width:1.27608252px;stroke-linecap:butt;stroke-linejoin:miter;stroke-opacity:1" d="m 41.430693,137.91335 0,4.735 c 27.690803,19.1754 47.768587,41.92862 60.106537,68.31926 3.01612,2.42936 5.65757,1.92434 8.06027,-0.45096 2.24181,-8.07335 -2.3545,-17.364 -6.67851,-26.60618 L 75.053503,165.6469 47.188036,144.45218 l 30.398698,23.22401 26.253426,16.45975 c -3.15415,-13.42676 0.40901,-26.55906 -42.143661,-41.71306 l -20.265806,-4.50953 z" id="path3795-1" sodipodi:nodetypes="ccccccccccc"/>
    <path style="fill:#ffdb00;fill-opacity:1;stroke:#000000;stroke-width:1.27608252px;stroke-linecap:butt;stroke-linejoin:miter;stroke-opacity:1" d="m 172.71873,383.93942 c -0.50511,3.14406 -1.67509,6.70249 1.92137,9.90103 3.23049,2.89588 6.46098,5.077 9.69148,4.98592 4.41634,-0.31254 8.87735,-0.53757 12.09941,-3.18874 7.36777,-7.75086 6.58345,-15.50376 2.34244,-21.90209 -4.79713,-6.05898 -10.55464,-7.1008 -18.23829,-5.73969 -8.6491,0.67281 -13.75901,4.81075 -20.19239,7.65292 -12.15886,2.92874 -24.31772,3.0441 -36.47659,-0.63774 C 106.01789,366.98348 88.578723,358.4886 74.362231,346.3126 61.206712,336.74647 52.779788,327.18032 46.353426,317.6142 39.29074,306.98514 34.790924,296.35611 32.023331,285.72707 c -1.378635,-9.56614 -2.307017,-19.13229 -0.651348,-28.69842 3.213498,-9.09808 6.596771,-15.72753 11.033727,-20.03419 5.225504,-6.28642 10.670381,-8.0612 17.626435,-9.30197 6.070272,-0.34833 9.31299,1.14896 11.72461,3.1887 -1.41444,2.33839 -2.230597,4.6768 0,7.01518 3.196439,1.44011 10.269626,-2.95601 8.698078,-5.59159 0.139453,-2.17459 -0.005,-4.16407 -3.487146,-3.97457 -4.695762,-3.15537 -6.046341,-5.85438 -21.26482,-5.62361 -8.656013,2.46422 -12.738289,5.37603 -17.817218,11.36331 -5.088751,4.6636 -8.440411,12.16175 -11.72461,19.77004 -1.917631,10.62903 -1.765764,21.25806 0,31.88712 2.934238,9.34065 5.571727,18.68131 10.270601,28.02198 5.997224,9.54637 13.87976,18.78369 23.719033,27.7965 7.505082,7.22323 15.927933,12.6493 23.982063,18.79739 12.59311,6.54492 25.186224,14.66733 37.779324,18.49454 7.45041,3.78394 15.39011,4.21444 23.44922,3.82645 7.64899,-0.0695 14.24976,-1.33333 21.34892,-3.71668 6.41341,-3.29997 12.7526,-6.7453 20.95668,-6.53881 6.69922,3.75794 8.05962,7.51588 8.06026,11.27379 -2.38812,7.40773 -6.64548,7.49487 -10.82378,7.89168 -6.22235,-2.3299 -3.7412,-4.65982 -3.6847,-6.98977 1.30502,-1.41551 2.61,-0.9718 3.915,0 l 0,2.93122 c 2.58974,1.20621 5.27727,2.93904 6.6785,-2.25478 l -0.69089,-4.73498 c -2.45632,-3.60835 -5.72855,-2.42385 -8.75113,-2.70572 -4.81901,0.78515 -7.90176,2.93027 -9.65141,6.11954 z" id="path3799-3" sodipodi:nodetypes="cccccccccccccccccccccccccccccccccccccc"/>
    <path style="fill:#ebbc00;fill-opacity:1;stroke:#000000;stroke-width:1.27608252px;stroke-linecap:butt;stroke-linejoin:miter;stroke-opacity:1" d="m 71.431077,230.56234 c -6.990667,-5.37869 -22.660492,-3.98861 -32.864122,11.11605 -1.472525,2.17981 -2.831198,4.64523 -4.033539,7.41717 0.725331,7.49132 0.893259,14.34183 9.214534,21.0068 5.102374,2.5688 10.204766,4.23365 15.307141,5.10195 0.15826,1.40561 1.038387,2.91995 -4.233889,3.50759 -5.853233,-0.9125 -11.163168,-5.54852 -16.609865,-9.24728 5.737408,5.2327 5.953808,11.54649 17.58692,15.62471 5.843112,1.76545 8.018896,4.83658 9.119134,8.29063 -3.256833,0.66674 -6.513667,-1.77086 -9.77051,-3.50757 2.805844,4.20262 6.650493,7.04914 10.747574,9.56614 l -16.609874,-4.46422 c -3.940122,-0.97178 -4.410993,2.17352 -0.325697,6.69633 7.029027,5.23498 15.559391,9.58802 24.751971,13.55203 l -19.541028,-4.62366 c 8.356215,6.51029 17.300092,7.84203 26.054704,10.84165 -3.27595,0.63652 -4.891345,3.22405 -10.096197,1.59435 -7.503909,-2.72282 -14.304058,-3.83785 -19.215341,-0.63776 l 6.187998,8.29068 c -0.115936,-1.98891 -0.09776,-3.89024 4.885255,-2.55098 8.142088,4.17456 16.284195,0.87341 24.426286,-5.10194 L 73.710855,311.55564 c 2.66359,-1.42128 8.635917,-0.25096 3.256832,-7.97179 L 74.362231,300.714 c -0.07994,-5.84596 -2.320185,-11.69194 -8.467776,-17.53791 2.061168,-6.80064 0.668328,-9.09225 0.325679,-12.75485 -2.902243,0.45346 -5.529619,1.17606 -10.096198,0 -9.102964,-5.6659 -13.234696,-13.15703 -8.467786,-23.91535 7.061504,-9.48929 12.559402,-9.79327 17.912618,-9.24727 l 5.210943,5.10195 1.954098,-2.86985 -1.302732,-2.2321 -1.628412,-2.2321 1.628412,-4.46418 z" id="path3801-89" sodipodi:nodetypes="cscccccccccccccccccccccccccccccccc"/>
    <path style="fill:#edc700;fill-opacity:1;stroke:#000000;stroke-width:1.27608252px;stroke-linecap:butt;stroke-linejoin:miter;stroke-opacity:1" d="m 94.189004,359.47971 c 4.990722,0.92924 10.017736,1.81408 20.294126,-3.72556 6.97848,-9.84684 6.01567,-18.88232 0,-26.07889 -6.34632,-7.83982 -17.807684,-8.56462 -25.621345,-3.22882 -5.220639,4.39347 -9.755877,12.89223 -1.268373,22.10499 l -7.102946,1.49021 c 3.667324,3.58604 7.385279,7.14731 13.698538,9.43807 z" id="path3930-3" sodipodi:nodetypes="ccccccc"/>
    <path style="fill:none;stroke:#000000;stroke-width:1.27608252px;stroke-linecap:butt;stroke-linejoin:miter;stroke-opacity:1" d="m 87.847086,348.55143 c 4.295131,3.6401 9.20235,3.48474 14.205894,2.73206 7.80778,-1.52153 9.96747,-6.47542 10.9081,-12.17016 -0.32295,-6.60808 -5.41534,-8.1017 -10.65442,-9.43807 -5.793894,0.0505 -8.097211,2.66431 -9.13236,6.20927 -0.522348,2.22849 0.446537,5.84374 5.327196,6.706 1.925044,0.0439 3.867314,0.12172 5.327224,-0.74511 1.83171,-1.95992 1.42284,-3.62885 0.25367,-4.47069 -1.67226,-1.19864 -2.57052,-0.62904 -3.55147,-0.24835" id="path3932-4" sodipodi:nodetypes="ccccccccc"/>
    <path style="fill:#808000;stroke:#000000;stroke-width:1.27608252px;stroke-linecap:butt;stroke-linejoin:miter;stroke-opacity:1" d="m 95.835917,360.36652 c 9.088413,1.4758 16.562433,-4.15032 25.650833,-7.02497 13.53467,-1.68699 25.01445,0.58804 28.52084,6.84935 12.35176,0.11792 12.69649,2.31055 17.75828,3.68811 0.25989,1.93187 2.02136,3.86374 -1.25563,5.7956 l -5.91945,5.44435 -13.63259,2.1075 -15.96449,-0.52688 -14.70888,-5.26873 -20.448913,-11.06433 z" id="path3936-4" sodipodi:nodetypes="cccccccccc"/>
    <path style="fill:#e2bc00;fill-opacity:1;stroke:#000000;stroke-width:1.27608252px;stroke-linecap:butt;stroke-linejoin:miter;stroke-opacity:1" d="m 96.553436,360.1909 c 9.669514,1.19738 18.130514,-4.11302 26.906474,-7.72748 24.96172,-2.51935 23.45887,4.96197 27.62396,7.02499 l -12.37697,5.61997 12.73573,-4.91748 c 9.02776,-0.85904 19.41142,0.0227 17.57888,6.14686 0.23826,3.12592 -3.20232,5.53148 -7.7132,7.72745 -4.76995,2.64691 -8.73154,2.52378 -12.55633,1.93186 l 12.19757,-8.60557 c -2.46142,-1.16666 1.53363,-5.04248 -9.86568,-2.45873 l -19.37266,6.6737 c -13.90583,0.004 -7.99712,-1.87096 -8.2513,-3.16123 l 18.29638,-8.07872 c -2.46368,-0.94658 2.15813,-2.93375 -8.78944,-2.63436 l -26.18894,7.55185 -9.327594,-5.09311 -0.89688,0 z" id="path3938-6" sodipodi:nodetypes="ccccccccccccccccc"/>
    <path style="fill:#808000;stroke:#000000;stroke-width:1.42205405px;stroke-linecap:butt;stroke-linejoin:miter;stroke-opacity:1" d="m 201.56192,377.88928 c 0.26249,3.02444 0.88251,6.04884 0,9.07327 l 16.45391,19.34492 16.22539,-15.74984 c -1.99251,-3.88043 -0.97789,-7.76078 0,-11.64118 -2.71847,-4.30198 -5.14239,-8.11656 -8.61974,-9.97665 -5.46042,-2.92095 -12.11206,-2.74508 -16.78715,-0.13989 -2.10687,1.17405 -4.92575,4.99597 -7.27241,9.08937 z" id="path3942-0" sodipodi:nodetypes="cccccssc"/>
    <path style="fill:#ffe500;fill-opacity:1;stroke:#000000;stroke-width:1.43709564px;stroke-linecap:butt;stroke-linejoin:miter;stroke-opacity:1" d="m 219.15781,399.74114 c -16.45345,-10.13156 -18.94459,-20.77231 -9.82148,-31.83664 5.32949,-1.2564 10.65896,-2.13785 15.98844,-0.1749 8.06328,11.44549 9.99274,22.42117 -6.16696,32.01154 z" id="path3940-6" sodipodi:nodetypes="cccc"/>
    <path style="fill:#ffee00;fill-opacity:1;stroke:#000000;stroke-width:1.27608252px;stroke-linecap:butt;stroke-linejoin:miter;stroke-opacity:1" d="m 401.40288,246.4087 c 19.32314,23.59451 6.81522,65.65366 -12.68385,96.3677 -24.65708,27.88682 -49.07859,33.80553 -75.08823,46.69361 -7.33821,5.29856 -12.10148,10.59715 -12.68385,15.89572 -4.2123,-2.99067 -4.86061,-8.30759 -5.07353,-13.90876 -11.83824,4.13983 -23.67647,-0.0889 -35.51471,-6.45764 l -18.26473,9.93484 -9.13235,-14.90223 c 4.42273,-8.82922 14.37494,-11.34233 26.88974,-10.92829 l -1.52208,5.46414 24.35295,6.45764 44.13973,-10.9283 27.39706,-18.3794 29.4265,-26.32726 -13.69855,-0.49674 -17.75736,1.49022 -5.07352,-3.97394 7.61028,-4.47065 8.62501,-12.41852 0.50735,-14.40549 6.08824,-12.41851 -3.04412,-3.47717 18.26472,-9.43809 9.6397,-17.88266 6.5956,-1.49022 z" id="path3805-1-6" sodipodi:nodetypes="ccccccccccccccccccccccccc"/>
    <path style="fill:#ffde00;fill-opacity:1;stroke:#000000;stroke-width:1.27608252px;stroke-linecap:butt;stroke-linejoin:miter;stroke-opacity:1" d="m 238.31132,87.500989 c -2.52928,-9.043224 -1.97394,-16.732615 13.12671,-18.038078 6.22264,0.617834 11.48999,2.950436 14.0479,10.146425 1.78037,6.744393 0.0701,18.305586 -10.13293,18.714516 -6.06437,0.30948 -12.12876,0.75987 -18.19315,-0.67644 l -2.30292,2.25476 -3.6847,-0.67642 c -1.84925,-2.40733 -1.22682,-4.008 -1.38175,-5.86238 1.44484,-4.003509 4.62989,-5.451309 8.52084,-5.862383 z" id="path3775-2-1" sodipodi:nodetypes="ccccccccc"/>
    <path style="fill:none;stroke:#000000;stroke-width:1.27608252px;stroke-linecap:butt;stroke-linejoin:miter;stroke-opacity:1" d="m 238.77191,87.275516 c 5.96314,6.724766 14.18477,5.510227 17.73256,0.90191 1.58008,-2.986596 1.93717,-5.88108 -0.46057,-8.56809 -1.36595,-1.925423 -3.26151,-2.295245 -5.06645,-2.931198 -3.07627,-0.04997 -4.29132,1.02814 -4.14529,2.931198 0.11865,2.119304 1.87284,2.119828 2.53324,2.029287 2.7587,-0.243348 2.45931,-1.236388 2.07263,-2.029287 -0.76765,-1.177582 -1.47771,-0.238273 -2.24536,-0.338213" id="path3777-3-8" sodipodi:nodetypes="cccccccc"/>
    <path style="fill:#ffdb00;fill-opacity:1;stroke:#000000;stroke-width:1.27608252px;stroke-linecap:butt;stroke-linejoin:miter;stroke-opacity:1" d="m 265.35101,79.276776 19.94013,-11.843147 16.8114,-30.439272 38.91955,0.676435 c 2.40007,36.395492 23.32771,62.896438 63.94056,78.884598 l -2.60547,28.0607 c -46.02635,29.16254 -64.121,68.09514 -67.74224,93.74815 14.90647,-7.11765 30.41672,-5.66143 28.66018,19.13228 -5.6259,13.28507 -15.95656,13.90273 -26.70606,13.39259 -23.36079,-11.56588 -16.36882,-30.4239 -16.28418,-34.4381 15.87554,-45.76416 41.27355,-74.04719 70.99904,-94.3859 l 0.65137,-24.23424 C 365.91497,104.15842 341.34103,87.653646 330.70675,43.85274 l -21.49514,-0.637751 -18.23829,28.060682 -25.15906,16.820452 c 0.7465,-3.607819 -0.24763,-6.40316 -0.46325,-8.819347 z" id="path3779-2-4" sodipodi:nodetypes="ccccccccccccccccc"/>
    <path style="fill:none;stroke:#000000;stroke-width:1.27608252px;stroke-linecap:butt;stroke-linejoin:miter;stroke-opacity:1" d="m 333.6379,239.16142 c -1.07733,4.51734 -1.81976,9.03469 -0.32568,13.55202 3.44916,3.64344 7.57662,4.29835 11.88745,4.14534 5.22672,-1.62179 5.58346,-5.03161 7.65358,-7.81235 -0.1643,-3.26383 -1.68211,-5.7704 -4.88525,-7.33404 -4.12672,-0.0972 -6.49116,1.87592 -8.46779,4.30477" id="path3781-2-9" sodipodi:nodetypes="cccccc"/>
    <path style="fill:#808000;stroke:#000000;stroke-width:1.27608252px;stroke-linecap:butt;stroke-linejoin:miter;stroke-opacity:1" d="m 330.4286,44.209595 0.4606,10.371893 -14.73878,-0.676426 -7.13907,-10.597383 21.41725,0.901916 z" id="path3783-1-6"/>
    <path style="fill:#ebc100;fill-opacity:1;stroke:#000000;stroke-width:1.27608252px;stroke-linecap:butt;stroke-linejoin:miter;stroke-opacity:1" d="m 317.76247,53.905062 c 0.42572,8.610915 0.95546,17.228613 -7.59968,25.253322 -3.58565,5.896315 -1.53636,10.873126 -1.84234,16.234268 -7.6206,-3.090067 -10.08352,-13.333989 -10.36319,-26.606173 -0.96492,9.34311 3.28643,19.150512 -3.68468,27.959033 -5.42893,4.658938 -7.41344,1.89871 -9.90262,0.22547 2.65674,-5.243471 1.34682,-8.156729 1.15146,-11.724741 -2.86728,4.284047 -2.83055,8.568071 -8.98143,12.852131 -5.60147,1.80154 -8.23044,0.69272 -11.51467,0.22548 3.49752,-3.29293 8.23118,-6.182401 8.29057,-10.597384 -3.32101,2.840049 -4.93713,0.672374 -7.13909,0.225485 l 24.87167,-16.459755 17.96288,-27.508082 7.59965,10.146419 1.15147,-0.225473 z" id="path3785-6-3" sodipodi:nodetypes="ccccccccccccccc"/>
    <path style="fill:#eac400;fill-opacity:1;stroke:#000000;stroke-width:1.27608252px;stroke-linecap:butt;stroke-linejoin:miter;stroke-opacity:1" d="m 330.65888,43.758643 c -0.16826,6.260575 1.20583,12.143615 -1.15146,18.939988 -4.4272,7.685851 -3.70709,15.638179 -2.76351,22.773076 4.2983,4.735 3.17252,9.470005 3.4544,14.204995 5.30876,-2.50014 8.63943,-7.905389 11.51466,-13.979516 -8.5682,15.697764 -6.93928,24.531644 -5.98762,33.821414 11.73002,-0.72186 11.87016,-16.12868 13.5873,-29.537367 -1.06034,12.795277 -5.92834,25.982987 3.91498,37.654507 13.39065,-8.85787 7.70161,-20.93652 3.91498,-32.694028 -13.1326,-14.532228 -22.55484,-31.244109 -26.48373,-51.183069 z" id="path3787-8-7" sodipodi:nodetypes="cccccccccc"/>
    <path style="fill:#808000;stroke:#000000;stroke-width:1.27608252px;stroke-linecap:butt;stroke-linejoin:miter;stroke-opacity:1" d="m 391.226,137.5567 -9.21172,0.45094 -0.92118,-14.20499 c -14.20897,-9.33325 -14.77901,-11.15506 -20.0355,-15.55787 l -3.68469,-13.077598 c 11.06,8.325168 22.18782,16.451208 33.85309,22.998558 l 0,19.39096 z" id="path3791-5-8" sodipodi:nodetypes="ccccccc"/>
    <path style="fill:none;stroke:#000000;stroke-width:1.27608252px;stroke-linecap:butt;stroke-linejoin:miter;stroke-opacity:1" d="m 391.226,117.71478 -11.05407,6.08787" id="path3793-7-8"/>
    <path style="fill:#eabd00;fill-opacity:1;stroke:#000000;stroke-width:1.27608252px;stroke-linecap:butt;stroke-linejoin:miter;stroke-opacity:1" d="m 390.99573,137.10574 0,4.735 c -27.69082,19.1754 -47.76859,41.92862 -60.10653,68.31925 -3.01612,2.42938 -5.65758,1.92435 -8.06029,-0.45096 -2.2418,-8.07335 2.3545,-17.36399 6.67851,-26.60617 l 27.86549,-18.26357 27.86548,-21.19474 -30.39872,23.22405 -26.25342,16.45973 c 3.15415,-13.42677 -0.40902,-26.55908 42.14366,-41.71307 l 20.26582,-4.50952 z" id="path3795-6-2" sodipodi:nodetypes="ccccccccccc"/>
    <path style="fill:#ffdb00;fill-opacity:1;stroke:#000000;stroke-width:1.27608252px;stroke-linecap:butt;stroke-linejoin:miter;stroke-opacity:1" d="m 259.70768,383.13182 c 0.5051,3.14406 1.67509,6.7025 -1.92136,9.90103 -3.2305,2.89584 -6.46099,5.077 -9.69149,4.98588 -4.41634,-0.31251 -8.87735,-0.53756 -12.0994,-3.18868 -7.36778,-7.75088 -6.58346,-15.5038 -2.34245,-21.90213 4.79713,-6.05898 10.55465,-7.10079 18.2383,-5.73967 8.64908,0.6728 13.75901,4.81074 20.19239,7.65291 12.15885,2.92874 24.31771,3.04409 36.47657,-0.63775 17.84828,-8.02755 35.28746,-16.52241 49.50394,-28.69842 13.15552,-9.56613 21.58244,-19.13229 28.00881,-28.69841 7.06268,-10.62905 11.5625,-21.25807 14.33009,-31.88713 1.37864,-9.56613 2.30701,-19.13228 0.65136,-28.69843 -3.21352,-9.09807 -6.59678,-15.72751 -11.03375,-20.03418 -5.2255,-6.28641 -10.67038,-8.0612 -17.62643,-9.30196 -6.07028,-0.34833 -9.313,1.14894 -11.72461,3.18871 1.41444,2.33839 2.2306,4.67677 0,7.01516 -3.19643,1.44011 -10.26962,-2.95601 -8.69807,-5.59159 -0.13947,-2.17457 0.005,-4.16407 3.48714,-3.97456 4.69576,-3.15536 6.04633,-5.85438 21.26483,-5.62362 8.65602,2.46422 12.73828,5.37603 17.81722,11.36332 5.08874,4.66357 8.4404,12.16175 11.7246,19.77003 1.91763,10.62904 1.76576,21.25807 0,31.88712 -2.93424,9.34066 -5.57173,18.68131 -10.2706,28.02199 -5.99723,9.54638 -13.87977,18.78369 -23.71902,27.79651 -7.5051,7.22321 -15.92794,12.64929 -23.98207,18.79739 -12.59312,6.54491 -25.18623,14.66731 -37.77934,18.49452 -7.45038,3.78393 -15.39008,4.21445 -23.44921,3.82646 -7.64899,-0.0695 -14.24977,-1.33333 -21.34891,-3.71668 -6.41343,-3.29996 -12.75259,-6.7453 -20.95668,-6.53881 -6.69923,3.75794 -8.05963,7.51588 -8.06026,11.27381 2.38811,7.40772 6.64549,7.49485 10.82377,7.89163 6.22236,-2.3299 3.74122,-4.65981 3.68469,-6.98972 -1.305,-1.41552 -2.60998,-0.97181 -3.91499,0 l 0,2.93119 c -2.58975,1.20623 -5.27727,2.93907 -6.6785,-2.25475 l 0.69089,-4.73502 c 2.45633,-3.60835 5.72855,-2.42383 8.75112,-2.7057 4.81901,0.78517 7.90179,2.93026 9.65142,6.11955 z" id="path3799-1-9" sodipodi:nodetypes="cccccccccccccccccccccccccccccccccccccc"/>
    <path style="fill:#ebbc00;fill-opacity:1;stroke:#000000;stroke-width:1.27608252px;stroke-linecap:butt;stroke-linejoin:miter;stroke-opacity:1" d="m 360.99533,229.75471 c 6.99067,-5.37868 22.66049,-3.98859 32.86413,11.11606 1.47253,2.17982 2.8312,4.64523 4.03352,7.41716 -0.72532,7.49134 -0.89324,14.34182 -9.21452,21.00683 -5.10238,2.56879 -10.20478,4.23363 -15.30715,5.10194 -0.15824,1.4056 -1.03838,2.91996 4.23389,3.50758 5.85325,-0.91249 11.16318,-5.54852 16.60989,-9.24727 -5.73742,5.23269 -5.95382,11.54647 -17.58694,15.6247 -5.84311,1.76545 -8.01888,4.83658 -9.11913,8.29065 3.25684,0.66674 6.51366,-1.77088 9.7705,-3.5076 -2.80583,4.20264 -6.65049,7.04916 -10.74757,9.56617 l 16.60989,-4.46421 c 3.94011,-0.9718 4.41099,2.1735 0.32568,6.69629 -7.02903,5.23499 -15.55939,9.58802 -24.75196,13.55203 l 19.54102,-4.62363 c -8.35621,6.51028 -17.30009,7.84202 -26.0547,10.84163 3.27596,0.63653 4.89133,3.22407 10.0962,1.59436 7.50391,-2.72282 14.30405,-3.83786 19.21534,-0.63776 l -6.188,8.29067 c 0.11595,-1.9889 0.0978,-3.89022 -4.88525,-2.55096 -8.14209,4.17455 -16.28419,0.8734 -24.4263,-5.10195 l 12.70169,-11.47937 c -2.66359,-1.42128 -8.63593,-0.25095 -3.25684,-7.97179 l 2.60546,-2.86984 c 0.0799,-5.84598 2.32018,-11.69194 8.46777,-17.53793 -2.06116,-6.80062 -0.66832,-9.09224 -0.32568,-12.75483 2.90225,0.45344 5.52963,1.17605 10.09622,0 9.10295,-5.66592 13.23467,-13.15703 8.46776,-23.91536 -7.06149,-9.4893 -12.55939,-9.79328 -17.91261,-9.24727 l -5.21094,5.10194 -1.9541,-2.86983 1.30273,-2.23211 1.62842,-2.23212 -1.62842,-4.46418 z" id="path3801-8-1" sodipodi:nodetypes="cscccccccccccccccccccccccccccccccc"/>
    <path style="fill:#edc700;fill-opacity:1;stroke:#000000;stroke-width:1.27608252px;stroke-linecap:butt;stroke-linejoin:miter;stroke-opacity:1" d="m 338.23741,358.6721 c -4.99072,0.92924 -10.01775,1.81408 -20.29412,-3.72556 -6.97849,-9.84683 -6.01568,-18.88231 0,-26.07889 6.34632,-7.83983 17.80767,-8.56463 25.62133,-3.22881 5.22063,4.39346 9.75589,12.8922 1.26838,22.10496 l 7.10295,1.49023 c -3.66734,3.58604 -7.38528,7.14731 -13.69854,9.43807 z" id="path3930-9-3" sodipodi:nodetypes="ccccccc"/>
    <path style="fill:none;stroke:#000000;stroke-width:1.27608252px;stroke-linecap:butt;stroke-linejoin:miter;stroke-opacity:1" d="m 344.57933,347.7438 c -4.29513,3.64011 -9.20235,3.48475 -14.20589,2.73208 -7.80778,-1.52154 -9.96747,-6.47543 -10.9081,-12.17015 0.32295,-6.60808 5.41535,-8.10171 10.65441,-9.43808 5.79389,0.0505 8.09721,2.6643 9.13236,6.20927 0.52235,2.22847 -0.44655,5.84375 -5.3272,6.70599 -1.92504,0.0439 -3.86731,0.12172 -5.32721,-0.74511 -1.83172,-1.95993 -1.42285,-3.62884 -0.25367,-4.47066 1.67226,-1.19865 2.57052,-0.62906 3.55147,-0.24837" id="path3932-2-5" sodipodi:nodetypes="ccccccccc"/>
    <path style="fill:#808000;stroke:#000000;stroke-width:1.27608252px;stroke-linecap:butt;stroke-linejoin:miter;stroke-opacity:1" d="m 336.5905,359.5589 c -9.08841,1.4758 -16.56243,-4.15034 -25.65084,-7.02495 -13.53467,-1.687 -25.01443,0.588 -28.52084,6.84933 -12.35177,0.11794 -12.69649,2.31056 -17.75826,3.68811 -0.25991,1.93188 -2.02138,3.86374 1.25563,5.79561 l 5.91942,5.44436 13.63261,2.10749 15.9645,-0.52688 14.70886,-5.26872 20.44892,-11.06435 z" id="path3936-7-9" sodipodi:nodetypes="cccccccccc"/>
    <path style="fill:#e2bc00;fill-opacity:1;stroke:#000000;stroke-width:1.27608252px;stroke-linecap:butt;stroke-linejoin:miter;stroke-opacity:1" d="m 335.87298,359.38328 c -9.66952,1.19738 -18.13053,-4.11301 -26.90648,-7.72746 -24.9617,-2.51938 -23.45886,4.96195 -27.62395,7.02496 l 12.37696,5.61999 -12.73571,-4.91749 c -9.02776,-0.85904 -19.41144,0.0227 -17.57889,6.14685 -0.23826,3.12594 3.20231,5.5315 7.71319,7.72748 4.76994,2.64689 8.73155,2.52376 12.55633,1.93187 l -12.19758,-8.60559 c 2.46143,-1.16665 -1.53361,-5.04249 9.8657,-2.45874 l 19.37265,6.67373 c 13.90584,0.004 7.99712,-1.87097 8.2513,-3.16125 l -18.29638,-8.07873 c 2.46368,-0.94658 -2.15812,-2.93374 8.78945,-2.63434 l 26.18894,7.55184 9.32759,-5.09312 0.89688,0 z" id="path3938-9-8" sodipodi:nodetypes="ccccccccccccccccc"/>
    <path style="fill:#4d4d4d;fill-opacity:1;stroke:#000000;stroke-width:1.78517699px;stroke-linecap:butt;stroke-linejoin:miter;stroke-opacity:1" d="m 187.5326,158.80337 c -5.55215,-4.20987 -9.65056,-8.41976 -18.77038,-12.62964 -6.50247,-6.94618 -11.50557,-16.41045 -20.93607,-18.43912 1.23923,-3.87885 -1.32792,-5.36048 -3.12821,-7.32514 9.96978,-3.44665 8.65596,-7.84091 2.64696,-12.62946 l -7.45995,1.51547 -1.92507,2.27338 4.09094,6.06225 -4.33156,-6.5674 -3.8503,-2.52596 -6.49742,4.54658 0.24063,2.77855 7.70059,2.02082 -1.4438,7.83027 1.4438,-7.83027 -6.01616,-2.02082 -3.12839,0.50516 -2.64696,8.08305 3.60966,5.30432 3.85029,1.51548 3.85029,-2.27321 3.12839,2.02061 -2.64712,-2.27319 -4.5722,2.27319 -0.48143,4.54678 7.94139,5.5569 4.33156,-0.50514 -0.24065,-5.05176 0,4.5466 -1.44396,4.79917 6.2568,-2.2734 c -3.47427,2.49836 -3.15837,5.99129 -4.33156,9.09338 1.84492,-1.41141 3.68999,-4.07893 5.53489,-3.03112 -3.11602,1.90795 -3.1493,5.11046 -3.12839,8.33544 2.40649,-2.036 4.81282,-4.84965 7.21932,-3.03112 -3.18033,1.58387 -2.49677,5.60116 -2.64714,9.09336 2.19322,-2.08005 4.22057,-3.29027 5.77554,-2.0208 -1.54016,1.31354 -2.99407,2.80799 -2.64714,8.08304 2.00539,-2.66258 4.01077,-3.98565 6.01615,-3.28369 l -0.48144,10.86141 10.10709,3.78886 21.41732,-16.16592 -2.40631,-5.55691 z" id="path21164" sodipodi:nodetypes="ccccccccccccccccccccccccccccccccccccccccccc"/>
    <path style="fill:#4d4d4d;fill-opacity:1;stroke:#000000;stroke-width:1.78517699px;stroke-linecap:butt;stroke-linejoin:miter;stroke-opacity:1" d="m 248.41449,129.07815 -8.90392,-4.29419 -6.25662,5.05193 c -1.21588,3.35156 1.3058,7.35714 3.8503,11.36657 l -3.8503,-11.61915 6.49743,-5.05194 c -0.46312,-4.0003 -6.94239,-7.03351 -22.62065,-8.58802 -2.9911,0.0786 -5.58125,-0.47405 -9.14438,0.50516 -0.92298,0.84205 -0.28664,1.68391 0,2.52597 -2.91704,-0.54393 -5.58334,-0.0347 -8.18203,0.75773 l 0,1.76823 0.96271,1.76806 c -0.37639,2.45792 -1.69454,2.69148 -2.64713,3.78884 l 2.88776,-4.04143 -2.40651,-2.02081 c -1.22266,-0.12071 -2.26431,-0.28988 -4.09092,-0.25257 -0.66997,0.22313 -1.17179,0.62257 -1.20333,1.51564 0.28663,1.90047 0.34901,3.81886 2.64712,5.55691 0.42621,3.34423 -0.82976,6.39419 3.1284,10.35626 4.91249,0.85996 8.53871,-5.03181 15.16054,4.79916 1.12597,2.69442 0.47394,5.38865 -2.88759,8.08305 l -8.90391,-2.77853 -0.24065,2.27319 -4.57219,0 c -1.90902,1.76825 -2.64957,3.53629 -0.72207,5.30451 l 7.94139,-1.76822 7.45995,3.03111 6.2568,-5.80947 0,-12.88223 0,12.88223 -6.49742,6.31463 -4.813,-2.52578 c -0.42882,4.1744 1.50495,9.12373 -8.66312,10.10349 -5.87553,0.0421 -6.1782,-3.10665 -5.05363,-7.07256 -4.80358,-3.01135 -5.96213,1.62888 -7.70057,5.05194 -5.09091,-0.65093 -9.9872,0.33341 -14.43864,5.05175 -2.72728,1.11492 -5.45457,-0.10609 -8.18185,-3.03113 -1.4485,2.86268 -0.47064,5.72553 1.92505,8.58821 l 17.08578,-0.75792 4.81299,3.03113 -4.57235,-3.53629 -16.84498,1.26308 c -5.68927,4.63018 -11.52473,8.76159 -19.73289,4.79916 l 1.68461,7.57773 c -4.49204,3.4408 -8.98409,2.85847 -13.47612,0.25257 1.5229,5.86215 7.46169,8.87207 17.32639,9.34594 l 4.81284,-7.32513 5.05345,-3.28371 14.92006,0.50516 -14.92006,-0.25257 -5.05345,2.77853 -4.57219,7.07238 c -2.42671,4.9464 -6.81578,7.83305 -11.7917,10.10369 5.37443,4.93963 10.74884,1.01598 16.12325,-3.28372 l 5.77553,-6.81997 6.25661,-2.2732 10.10708,0 -9.86644,0 -6.25663,2.52579 -6.01615,6.81997 c -2.21641,4.88349 -4.77867,9.76679 -2.64714,14.65028 l 11.79151,-6.56741 13.47612,-17.68121 6.49743,0 6.49741,-3.53628 2.16588,2.02063 -2.16588,-2.02063 -6.49741,3.78886 -6.9787,0 -12.99485,18.18654 c -7.7783,5.97922 -16.76324,11.32524 -20.93589,19.19687 -2.13066,-0.53954 -3.96353,-2.79885 -6.49741,-1.01032 l 0,3.78885 c -0.7949,-3.99204 1.13034,-8.86254 -5.05363,-11.11398 -3.12788,-0.2182 -4.15139,2.21394 -5.05346,4.79918 l 0.48127,8.84058 c 2.33244,-0.91373 4.37721,-0.4682 6.2568,0.75775 l 0.48126,2.0208 -1.20317,-2.27338 c -1.8449,-1.92369 -3.68998,-1.11932 -5.53489,-0.25258 l -4.57218,6.56739 4.33156,7.57772 2.64711,0 c -0.58493,-3.48396 1.27879,-6.03335 3.1284,-8.58802 1.92506,-0.57063 3.8503,-0.30745 5.77536,1.26288 -1.67833,-0.8746 -3.19409,-2.60204 -5.29409,-1.26288 -1.87035,2.34416 -3.93341,4.58718 -3.60967,8.08286 l 0,3.53629 6.49745,3.03113 4.57217,-2.52598 1.68443,-3.03111 -1.20316,-5.05176 c -0.55567,-2.53182 1.84456,-3.34004 3.12839,-4.79917 -1.46174,1.56485 -3.39795,2.84531 -3.36903,5.30434 l 1.92506,4.04142 4.33173,1.01031 c 2.81947,-1.60435 5.88477,-2.92229 6.73807,-6.81979 0.0819,-2.13329 -1.42412,-3.89639 -3.36905,-5.55709 l -2.40649,0 2.16588,0 4.33155,3.78885 1.68443,-6.81998 c 1.17563,2.59457 1.95014,5.69409 5.29425,5.55709 -0.67921,-1.97124 -0.68199,-3.82396 0,-5.55709 1.66177,3.52405 4.18832,4.32419 6.73805,5.05194 -2.18555,-3.82707 -1.08345,-6.39914 -0.96269,-9.34594 1.10001,2.84512 2.71787,5.3559 6.73805,6.31482 -1.84194,-2.58888 -1.3246,-4.97128 -0.48127,-7.32513 1.9627,1.8626 3.51575,4.40082 6.9787,3.78885 -2.19445,-2.52962 -2.15925,-4.76681 -2.64714,-7.07255 3.12979,3.06788 6.79241,4.03796 10.82898,3.53628 -2.18556,-3.11526 -2.45111,-6.23069 -1.92505,-9.34595 l 2.40649,0.25259 7.21932,4.79934 19.49209,2.52578 14.19801,9.59852 -8.66312,-6.06223 5.29409,11.36656 -0.48127,4.54677 4.81282,-0.25257 -5.05346,0 0,-4.54677 -4.09092,-8.33546 -2.40649,-0.75773 c -12.06804,9.25906 -24.12511,18.62293 -36.8185,21.9754 l -9.14455,5.80948 0.48127,4.2942 2.64712,-0.50533 8.90393,-3.78887 -9.14456,3.78887 -2.88776,0 0,-4.04145 6.25678,-5.30432 -2.40648,-1.01031 c -2.02596,-1.02439 -3.71961,0.21821 -5.2941,2.2732 -2.1216,3.73289 -5.71244,4.03869 -9.86644,3.03112 -0.30789,2.4572 -0.7665,4.95536 5.77553,5.55709 l 2.88758,-2.52596 c -1.24654,1.29873 -0.1237,1.71994 -4.81282,4.294 -8.39199,-1.24825 -14.83417,-0.69535 -17.56703,3.28371 -1.2875,3.01064 -0.12371,3.81629 0,5.55691 2.7245,-3.83239 6.54411,-5.23831 11.31025,-4.54659 3.77605,0.71638 6.45297,-1.25925 9.62581,-2.02063 l -6.25679,4.79916 c -2.19374,2.9287 -0.58547,4.52703 0.48127,6.31483 0.63285,-2.86029 1.65688,-5.3614 4.09092,-6.5674 5.43227,-0.1134 7.74746,-4.31706 11.55105,-6.5674 l 1.92506,5.05174 21.41732,-16.67089 -21.17668,16.41831 -2.40633,-3.28351 -2.64714,2.2732 c -0.17564,2.02081 -1.04129,4.04143 0.24063,6.06225 1.7996,2.59181 4.0113,4.96724 6.2568,7.32513 -1.41749,2.35753 -0.81581,4.71504 0,7.07256 -8.60719,2.80067 -15.29174,8.29211 -21.8986,13.89234 3.04825,-9.43902 -2.33592,-11.65737 -7.70076,-13.89234 -2.38314,1.50576 -4.48349,3.47794 -5.29408,7.5777 l 2.88777,2.52578 5.29409,-0.50515 c -1.76476,-0.75206 -3.52933,-0.14082 -5.29409,0.75773 l -5.77553,0 c -1.83446,3.28371 -0.4635,6.56741 -0.24063,9.85111 2.54415,-0.31203 4.63562,-1.81231 6.73806,-3.2837 2.40789,-0.59295 4.74138,-0.99112 6.25678,0.75774 l 0.24064,3.28369 -0.24064,-3.28369 c -1.60671,-1.00172 -3.2596,-1.84249 -5.5349,-0.50517 -2.06654,1.1987 -4.88233,1.61114 -5.05345,4.79937 l 2.88778,8.84059 c 2.48665,0.59733 4.9733,1.25612 7.45994,0 l 0.24063,-5.05174 -1.68459,-1.26308 1.92523,0.75773 0.48125,5.55709 c 1.69682,0.51175 3.34134,0.63886 4.81284,-0.50515 l 0.24063,-4.29401 5.29427,-5.05194 -3.85031,6.5674 c -0.13068,1.72031 0.53023,2.98778 2.88777,3.2837 l 8.6631,0 c 2.22982,-2.44366 2.12493,-5.15947 2.40651,-7.83028 0.0644,3.14416 0.52273,6.16996 2.16569,8.8406 0.0435,-5.59404 2.395,-7.36502 4.09091,-10.60884 -0.15507,3.61968 -0.0959,7.2046 2.64714,10.35626 -1.02455,-5.69171 0.56804,-9.24699 1.44396,-13.38721 0.74578,2.44167 -0.5128,4.88349 2.64697,7.32515 1.63197,-7.60882 4.2528,-8.29722 6.49742,-11.61934 -0.7064,3.14251 1.47986,5.0704 2.88777,7.32514 -0.20267,-4.29566 0.34622,-7.96052 2.40648,-10.35607 0.4682,3.09313 2.37201,5.97097 6.016,8.58802 -0.98816,-4.22324 -0.28682,-7.55978 1.44395,-10.35626 3.28889,-2.17864 6.57759,-1.04651 9.86647,-0.50515 2.00538,0.96495 4.01059,3.22134 6.01597,6.56739 0.18923,-2.77854 0.59609,-5.55708 -0.96253,-8.33562 -0.18609,-3.26743 -2.93917,-4.91824 -5.29409,-6.81979 5.42547,0.13717 7.18221,-3.57506 10.10691,-6.06224 2.10036,-2.18908 1.19707,-4.37833 1.20333,-6.56741 -3.6898,4.23567 -7.3798,5.03035 -11.06959,6.56741 -4.01548,-0.68349 -3.70707,-3.31205 -4.81301,-5.30434 -1.22633,3.27127 -2.94944,5.67341 -5.53472,6.56722 -2.03483,-0.65037 -3.84679,-1.47634 -4.0911,-3.53628 -1.14512,-2.18907 -0.0628,-4.37815 0,-6.56721 26.24374,-8.37989 21.03643,-17.46228 28.15538,-26.26941 -1.14566,11.28792 3.23137,21.21199 12.99485,29.80568 l -3.36902,-3.03111 c -0.56578,6.77808 -2.73287,11.39509 -5.53473,15.15542 4.78424,0.61818 8.52232,-1.39878 10.10691,-8.84078 l 3.60965,-1.01032 0,-6.56739 c -3.58892,-2.90694 -4.38766,-6.10669 -4.81281,-9.34577 0.31032,3.11526 0.73374,6.23051 4.81281,9.34577 l -0.72189,6.31481 -3.36902,3.53628 -0.96254,7.57772 c -3.81422,3.5851 -6.36953,7.69879 -6.97868,12.62964 4.73266,-5.58874 9.46533,-9.81872 14.198,-12.37706 1.98013,-2.53969 0.9364,-5.47626 0.48127,-8.33546 l 4.09092,8.84062 c 1.98153,-5.80949 0.49626,-11.61916 0.48144,-17.42864 l -8.42265,-16.67107 c 2.88253,5.98121 5.45421,12.15832 9.86645,17.17623 -2.31797,2.69423 -0.68653,5.38864 -0.7219,8.08286 3.36901,4.0193 6.73805,2.31125 10.10709,0.75774 0.3145,4.20421 2.65443,8.2568 7.45995,12.1243 l -6.2568,10.60883 -0.48127,-6.81998 c -3.91667,-2.74708 -7.4575,-2.33738 -11.0696,-2.52577 -1.25125,0.59002 -2.65148,0.39816 -3.60966,2.52577 -1.95485,3.25207 -2.28836,6.26106 0.24063,8.8408 1.43403,-2.2937 2.35876,-5.65714 5.29409,-4.79917 2.04807,-0.075 1.77991,1.67184 2.64712,2.52578 l -2.40649,-3.2837 c -2.72868,1.00902 -5.58838,1.88016 -4.5722,6.81998 l 6.49743,7.07255 3.60966,-1.51546 -0.24062,-6.31484 6.73804,0 -6.85846,-0.25257 c -1.09008,1.28028 0.0993,3.94614 1.5642,6.56741 -0.62275,2.32276 2.65655,3.2804 5.77553,4.29401 3.33051,-0.30635 4.5978,-3.50044 5.05344,-7.83029 0.79683,1.29782 -0.7536,3.08818 2.88777,3.78885 6.36761,2.5011 5.37651,-1.17712 7.45996,-2.27338 1.52395,-3.43094 -0.92786,-5.29702 -1.68443,-7.8303 2.07648,1.81616 3.59361,6.56685 6.25662,5.30433 -3.38088,-3.79252 -2.45756,-6.22978 -2.88759,-9.09319 1.83079,2.25364 3.6344,4.79223 5.77534,3.78886 -4.04265,-5.14118 -2.4295,-9.369 -2.64713,-13.89253 2.30091,1.73458 4.58387,3.53574 6.25679,7.5777 1.07927,-3.38539 -0.44014,-6.38101 -3.85029,-9.09317 2.4065,0.30928 4.81282,0.21435 7.21933,2.77854 -0.80763,-5.06693 -3.73025,-6.64531 -6.73806,-8.08304 2.50251,-0.48889 4.62376,-2.37838 7.70059,-0.75775 4.12211,-3.60979 0.38786,-2.82153 0.24079,-4.04143 -3.40108,0.477 -5.97119,-1.9535 -8.42265,-4.79917 0.4391,-2.94809 4.02872,-4.09246 7.94122,-5.05193 -2.36399,-3.80349 -6.4347,-2.94955 -10.34772,-2.52577 4.66089,-2.69113 7.53174,-6.06554 8.66329,-10.10369 -0.85972,-4.59359 -2.93742,-4.39296 -5.05345,-4.04143 -2.51941,0.78901 -2.79541,1.91436 -3.1284,3.03112 1.2835,-0.1134 2.56681,-1.35471 3.85029,-0.25257 0.74176,1.50761 0.38004,2.87053 -1.44396,4.04143 -2.72728,1.94106 -5.45457,2.07677 -8.18185,2.77854 -2.49275,-4.21737 -5.38905,-3.35008 -8.18186,-3.78885 1.92873,2.89614 7.05728,5.56824 0,9.09316 -5.35733,-0.34055 -6.95342,-3.19352 -8.9039,-5.80964 -0.27636,-4.57057 3.70252,-5.171 6.01615,-7.32514 -3.11045,-0.60942 -6.204,-1.39659 -9.62582,1.26307 -2.31851,-2.40416 -4.28555,-4.84197 -3.1284,-7.57772 6.03168,0.94777 12.28185,3.38741 17.08578,-4.04143 1.86633,1.17162 2.30091,3.6312 1.92523,6.81998 4.27231,-3.76801 2.07508,-6.56574 -0.24064,-9.34595 5.56835,-9.33331 7.56468,-19.72121 2.8876,-32.07908 -9.06563,-10.98943 -12.11056,-18.90019 -8.66313,-23.49086 5.45788,-8.35923 12.4073,0.12254 13.23549,5.30433 1.92732,-4.12558 2.84734,-8.25132 0,-12.37688 -5.52339,-5.18197 -10.72862,-4.30957 -15.64198,-2.77856 -3.47811,3.08491 -6.75043,6.38598 -4.57219,15.40819 -1.55897,-2.41567 -3.30123,-4.25505 -4.57219,-7.57772 -1.51698,-4.4575 -0.50375,-7.14442 -0.24063,-10.35624 4.0451,-0.88941 8.06197,-2.01679 11.7915,-5.55709 l 3.24863,-7.57771 c 2.24603,-1.85768 4.85308,-0.34842 7.09909,1.26308 -1.09547,-2.27339 0.0888,-4.5466 -3.85029,-6.81999 -2.48665,-0.54191 -4.9733,-1.46353 -7.45994,0.25258 5.08795,-5.80967 6.73979,-11.61914 7.70058,-17.42882 -0.25422,-4.25121 -0.83917,-8.43639 -7.70058,-11.36656 -6.69031,-2.10054 -9.53556,-0.45322 -11.7917,1.76806 6.91615,1.13887 9.9271,3.49255 8.18203,7.32513 -10.09714,2.50163 -14.33548,9.73367 -16.12323,18.94445 -6.42546,-1.94526 -8.09648,1.09995 -9.14439,4.79918 3.94038,-1.33752 7.03984,-0.64892 7.21932,9.85109 1.07997,1.75361 2.61682,3.12385 5.29408,3.5361 -3.57951,9.44507 0.39155,18.67615 8.66311,27.78505 -4.33155,-0.54208 -8.66311,-0.61013 -12.99466,1.51548 -2.96861,3.44027 -2.71351,8.65808 2.16571,12.37707 2.53316,1.95423 5.09265,3.63102 7.94137,2.2732 2.22355,-1.68392 0.55707,-3.36783 -0.96269,-5.05175 -3.57883,-5.6222 5.08393,-3.71204 10.10707,-4.04144 6.51485,5.04664 6.02836,12.1929 6.01616,19.19687 -3.69731,-2.57662 -7.05135,-2.81146 -10.10708,-1.01031 -0.49276,1.02988 -1.89493,1.9405 0,3.28369 11.35484,0.15182 9.17923,5.60337 4.33155,10.35609 -8.38953,4.12811 -16.9387,-2.02758 -21.89858,-7.83031 l -21.89859,-32.07889 c -1.78863,-3.6151 -3.33731,-7.56601 -6.97869,-8.5882 3.07263,4.37832 2.36763,8.75646 1.68443,13.13479 -9.66258,-3.89895 -13.67301,-8.98453 -13.71657,-14.90283 -7.47947,0.80765 -10.78159,6.97434 -12.51357,15.15542 -1.83375,-4.09667 -6.87816,-6.84541 -2.88777,-13.38738 -10.21181,-0.16095 -12.97533,6.78486 -16.3637,13.13479 -0.64681,-4.37833 -4.79488,-8.75647 -1.44397,-13.13479 -3.40335,4.294 0.61631,8.5882 1.20335,12.88222 3.13187,-9.54329 9.48207,-12.81328 17.08559,-13.63996 -3.2359,5.40145 -1.38299,9.8319 2.4065,13.89253 1.60792,-7.32202 4.17596,-13.81955 12.7542,-15.15542 0.68967,6.10157 3.01862,11.62957 13.23531,14.39768 l -1.20317,-12.12448 7.70058,9.8511 c -1.11133,-6.26836 -1.9883,-12.57202 -7.45994,-18.18654 0.0975,-4.21518 0.0541,-8.4631 5.77552,-11.36658 l -3.36903,-9.8511 2.16569,-11.11398 c -0.97036,3.66614 -3.82799,6.14363 -1.92506,11.61932 0.0175,3.11526 1.59487,6.23051 4.81282,9.34576 l 5.77554,3.53629 c -2.30998,-8.08068 -3.25438,-15.9823 4.57219,-22.73314 l 1.92522,-9.09319 -4.81299,-9.09335 5.53489,8.58801 c 2.11446,1.38471 4.05869,2.05374 5.53471,0.75792 -3.04999,-2.35751 -4.11043,-4.71503 -5.29408,-7.07255 l 0,-11.36657 z" id="path21092" sodipodi:nodetypes="cccccccccccccccccccccccccccccccccccccccccccccccccccccccccccccccccccccccccccccccccccccccccccccccccccccccccccccccccccccccccccccccccccccccccccccccccccccccccccccccccccccccccccccccccccccccccccccccccccccccccccccccccccccccccccccccccccccccccccccccccccccccccccccccccccccccccccccccccccccccccccccccccccccccccccccccccccccccccccccccccccccccccccccc"/>
    <path style="fill:#4d4d4d;stroke:#000000;stroke-width:1.78517723px;stroke-linecap:butt;stroke-linejoin:miter;stroke-opacity:1" d="m 215.36614,193.26029 0,-6.43004 -8.84833,-2.14317 14.29349,-13.21711" id="path21094"/>
    <path style="fill:#4d4d4d;stroke:#000000;stroke-width:1.78517723px;stroke-linecap:butt;stroke-linejoin:miter;stroke-opacity:1" d="m 223.53386,181.47216 2.72259,-8.9306" id="path21096"/>
    <path style="fill:#4d4d4d;stroke:#000000;stroke-width:1.78517723px;stroke-linecap:butt;stroke-linejoin:miter;stroke-opacity:1" d="m 193.24521,182.54374 6.80636,-4.6439 6.46624,0" id="path21098"/>
    <path style="fill:#4d4d4d;stroke:#000000;stroke-width:1.78517723px;stroke-linecap:butt;stroke-linejoin:miter;stroke-opacity:1" d="m 201.75326,177.89984 0,-6.78705 9.8694,-6.42987" id="path21100"/>
    <path style="fill:#4d4d4d;stroke:#000000;stroke-width:1.78517723px;stroke-linecap:butt;stroke-linejoin:miter;stroke-opacity:1" d="m 226.25645,155.03795 6.46606,-12.14535" id="path21102"/>
    <path style="fill:#4d4d4d;stroke:#000000;stroke-width:1.78517723px;stroke-linecap:butt;stroke-linejoin:miter;stroke-opacity:1" d="m 244.80396,134.67659 1.02108,-2.32185 -0.68061,-4.2867" id="path21104"/>
    <path style="fill:#4d4d4d;stroke:#000000;stroke-width:1.78517723px;stroke-linecap:butt;stroke-linejoin:miter;stroke-opacity:1" d="m 221.83221,120.74511 6.46621,6.78723" id="path21106"/>
    <path style="fill:#4d4d4d;stroke:#000000;stroke-width:1.78517723px;stroke-linecap:butt;stroke-linejoin:miter;stroke-opacity:1" d="m 224.89525,128.78261 0,6.60837" id="path21108"/>
    <path style="fill:#4d4d4d;stroke:#000000;stroke-width:1.78517723px;stroke-linecap:butt;stroke-linejoin:miter;stroke-opacity:1" d="m 208.04924,122.35257 5.95571,0 1.70149,-1.78598 2.38228,0.7144 3.40319,3.21492" id="path21110"/>
    <path style="fill:#4d4d4d;stroke:#000000;stroke-width:1.78517723px;stroke-linecap:butt;stroke-linejoin:miter;stroke-opacity:1" d="m 213.32416,123.24564 1.36138,2.50055 2.72258,0" id="path21112"/>
    <path style="fill:#4d4d4d;stroke:#000000;stroke-width:1.78517723px;stroke-linecap:butt;stroke-linejoin:miter;stroke-opacity:1" d="m 215.53638,125.74619 0,3.03642" id="path21114"/>
    <path style="fill:#4d4d4d;stroke:#000000;stroke-width:1.78517723px;stroke-linecap:butt;stroke-linejoin:miter;stroke-opacity:1" d="m 217.31123,125.7312 1.68443,-2.33632" id="path21116"/>
    <path style="fill:#4d4d4d;stroke:#000000;stroke-width:1.78517723px;stroke-linecap:butt;stroke-linejoin:miter;stroke-opacity:1" d="m 215.98767,125.60499 1.62432,0" id="path21118"/>
    <path style="fill:#4d4d4d;stroke:#000000;stroke-width:1.78517723px;stroke-linecap:butt;stroke-linejoin:miter;stroke-opacity:1" d="m 216.9502,125.98376 1.02281,-1.07341" id="path21120"/>
    <path style="fill:#4d4d4d;stroke:#000000;stroke-width:1.78517723px;stroke-linecap:butt;stroke-linejoin:miter;stroke-opacity:1" d="m 212.52839,123.74201 1.02281,-1.07341" id="path21120-0"/>
    <path style="fill:#4d4d4d;stroke:#000000;stroke-width:1.78517723px;stroke-linecap:butt;stroke-linejoin:miter;stroke-opacity:1" d="m 202.93271,126.04706 4.57219,-0.50518" id="path21144"/>
    <path style="fill:#4d4d4d;stroke:#000000;stroke-width:1.78517723px;stroke-linecap:butt;stroke-linejoin:miter;stroke-opacity:1" d="m 186.56902,200.30871 c 4.50842,5.5088 2.07404,14.80115 -3.36902,17.6814" id="path21150" sodipodi:nodetypes="cc"/>
    <path style="fill:#4d4d4d;stroke:#000000;stroke-width:1.78517723px;stroke-linecap:butt;stroke-linejoin:miter;stroke-opacity:1" d="m 182.23728,217.98992 c 7.24738,1.72708 12.80197,-4.05387 16.84514,-14.14493" id="path21152" sodipodi:nodetypes="cc"/>
    <path style="fill:#4d4d4d;fill-opacity:1;stroke:#000000;stroke-width:1.78517723px;stroke-linecap:butt;stroke-linejoin:miter;stroke-opacity:1" d="m 271.51624,204.35014 -4.57219,-5.55708 c -5.93322,-0.34513 -10.73193,-4.26274 -15.40116,-8.58803 -1.78062,-3.29669 -3.61106,-6.60507 0.24062,-8.58803 5.11305,-1.47815 7.74241,-1.00116 10.34773,-0.50516 l 0,-4.04143 -2.4065,-1.76823 -9.38502,1.01032 c -3.02592,1.53887 -5.9834,3.14963 -6.49742,7.32512 -1.35755,6.45402 5.19704,11.52387 11.31026,16.67109 l 9.38518,3.53628 6.9785,0.50515 z" id="path21154" sodipodi:nodetypes="cccccccccccc"/>
    <path style="fill:#4d4d4d;fill-opacity:1;stroke:#000000;stroke-width:1.78517699px;stroke-linecap:butt;stroke-linejoin:miter;stroke-opacity:1" d="m 268.62865,180.60649 c 8.74345,-2.71271 17.48672,-2.16237 26.23015,-8.33545 2.72972,-4.90032 3.80796,-7.30374 4.78372,-17.5027 0.10631,-4.77595 -0.2638,-8.31094 -0.93343,-12.30299 3.46086,-4.43777 2.69505,-12.37194 2.63511,-15.91317 1.4438,-0.95305 1.69663,-0.95196 3.14042,0 l 1.4438,2.77855 c 1.20316,-0.41609 2.40649,1.18096 3.60965,-1.76823 -0.15159,-1.47579 -0.0313,-3.02252 -1.92505,-4.04143 -2.4309,-1.32874 -4.20611,-2.55285 -7.09056,-1.97728 -3.20367,-0.34475 -4.52427,1.51912 -3.97906,4.25066 1.53389,5.04645 0.10628,8.91048 -0.96271,12.62946 -0.57222,-6.22685 -4.53873,-11.26598 -8.90374,-16.16574 -2.34777,-2.57625 -5.91439,-3.23322 -10.82898,-1.76822 -1.5837,0.57008 -3.35143,0.56075 -4.33174,3.03112 -1.37809,0.218 -2.59449,4.94238 2.88778,2.77855 l 4.33172,-2.2734 c 1.96392,-0.0786 3.95379,-0.26647 5.29409,2.2734 5.79713,6.35303 7.27422,13.46181 9.38519,20.45973 l 0.24063,14.3977 c -0.16902,3.05344 -1.6271,5.20427 -3.1284,7.32512 -3.60965,2.85794 -7.21931,2.88958 -10.82897,4.04144 l -7.94121,4.29402 -3.36904,0.75791 0.24063,3.03095 z" id="path21156" sodipodi:nodetypes="ccccccccccccccccccccccccc"/>
    <path style="fill:#4d4d4d;stroke:#000000;stroke-width:1.78517723px;stroke-linecap:butt;stroke-linejoin:miter;stroke-opacity:1" d="m 259.608,158.61026 c 4.33434,-0.0493 7.55717,2.23425 7.82743,10.71637 1.93028,-4.39204 1.1467,-9.65119 12.93228,-10.89506" id="path21158" sodipodi:nodetypes="ccc"/>
    <path style="fill:#4d4d4d;stroke:#000000;stroke-width:1.78517723px;stroke-linecap:butt;stroke-linejoin:miter;stroke-opacity:1" d="m 275.94346,132.35474 c 3.58039,2.27247 5.93705,3.96388 5.95569,8.57302 -1.47829,4.30975 -1.14514,5.64085 -5.78545,8.2162 -4.72047,1.2788 -7.98147,4.54861 -7.31689,10.53787" id="path21162" sodipodi:nodetypes="cccc"/>
    <path style="fill:#4d4d4d;stroke:#000000;stroke-width:1.78517723px;stroke-linecap:butt;stroke-linejoin:miter;stroke-opacity:1" d="m 213.55137,143.11062 -24.5032,0.89307 c -2.66384,-1.53486 -4.72361,-3.36819 -3.57342,-6.78706 l 0.59558,-2.58979 c -2.29724,-1.40611 -4.59432,-1.54052 -6.89156,-0.0896 -5.06931,4.28615 -3.29114,8.14962 -0.76563,11.96684 4.53768,2.60919 9.0752,1.83993 13.61288,0.44643 l 22.20595,-1.16083 -0.6806,-2.67922 0,1.8e-4 z" id="path21323" sodipodi:nodetypes="cccccccccc"/>
    <path style="fill:#4d4d4d;stroke:#000000;stroke-width:1.78517723px;stroke-linecap:butt;stroke-linejoin:miter;stroke-opacity:1" d="m 120.37404,237.5683 c 0.54835,-5.33743 2.02124,-9.93084 7.33954,-11.42986 3.8083,2.76098 2.53214,5.81041 0.48128,8.90389 -2.6069,-2.73887 -5.21394,0.94686 -7.82082,2.52597 z" id="path21325" sodipodi:nodetypes="cccc"/>
    <path style="fill:#4d4d4d;stroke:#000000;stroke-width:1.78517723px;stroke-linecap:butt;stroke-linejoin:miter;stroke-opacity:1" d="m 122.72199,256.45167 c -2.26989,-4.81068 -3.3793,-9.51529 0.33838,-13.77913 4.62533,0.18105 5.11008,3.47189 4.96424,7.23771 -3.6006,-0.83949 -3.91249,3.73929 -5.30262,6.54142 z" id="path21325-9" sodipodi:nodetypes="cccc"/>
    <path style="fill:#4d4d4d;stroke:#000000;stroke-width:1.78517723px;stroke-linecap:butt;stroke-linejoin:miter;stroke-opacity:1" d="m 134.84665,263.26378 c -3.43996,-3.97266 -5.73614,-8.1776 -3.2751,-13.34824 4.49482,-1.15809 5.82135,1.86774 6.66488,5.53095 -3.68181,0.22935 -2.78514,4.72235 -3.38978,7.81729 z" id="path21325-0" sodipodi:nodetypes="cccc"/>
    <path style="fill:#4d4d4d;stroke:#000000;stroke-width:1.78517723px;stroke-linecap:butt;stroke-linejoin:miter;stroke-opacity:1" d="m 148.35186,257.39284 c 3.92033,-3.44755 6.73753,-7.28763 4.96546,-12.7604 -4.30438,-1.78561 -6.00847,1.02384 -7.31654,4.53361 3.61853,0.75023 2.15087,5.07459 2.35108,8.22679 z" id="path21325-1" sodipodi:nodetypes="cccc"/>
    <path style="fill:#4d4d4d;stroke:#000000;stroke-width:1.78517723px;stroke-linecap:butt;stroke-linejoin:miter;stroke-opacity:1" d="m 141.17384,296.93717 c 3.472,-3.94176 7.26356,-6.70767 12.38464,-4.58299 1.48909,4.6 -1.26746,6.24934 -4.67117,7.44951 -0.53719,-3.8302 -4.72361,-2.50273 -7.71347,-2.86652 z" id="path21325-8" sodipodi:nodetypes="cccc"/>
    <path style="fill:#4d4d4d;stroke:#000000;stroke-width:1.78517723px;stroke-linecap:butt;stroke-linejoin:miter;stroke-opacity:1" d="m 137.67988,315.27149 c 0.54835,-5.33743 2.02125,-9.93084 7.33955,-11.42986 3.80829,2.761 2.53212,5.81041 0.48126,8.9039 -2.60688,-2.73886 -5.21393,0.94685 -7.82081,2.52596 z" id="path21325-3" sodipodi:nodetypes="cccc"/>
    <path style="fill:#4d4d4d;stroke:#000000;stroke-width:1.78517723px;stroke-linecap:butt;stroke-linejoin:miter;stroke-opacity:1" d="m 148.42226,329.22292 c -1.94022,-4.96707 -2.72973,-9.74228 1.26623,-13.71951 4.60147,0.52363 4.86318,3.84279 4.46381,7.58832 -3.5349,-1.10488 -4.1547,3.43934 -5.73004,6.13119 z" id="path21325-4" sodipodi:nodetypes="cccc" inkscape:transform-center-x="-5.3339672" inkscape:transform-center-y="2.7029452"/>
    <path style="fill:#4d4d4d;stroke:#000000;stroke-width:1.78517723px;stroke-linecap:butt;stroke-linejoin:miter;stroke-opacity:1" d="m 250.0984,313.89942 c 0.2321,-5.36286 1.43073,-10.04333 6.65041,-11.88545 3.96406,2.50786 2.87033,5.63446 1.00626,8.85543 -2.7637,-2.56402 -5.14807,1.28428 -7.65667,3.03002 z" id="path21325-84" sodipodi:nodetypes="cccc"/>
    <path style="fill:#4d4d4d;stroke:#000000;stroke-width:1.78517723px;stroke-linecap:butt;stroke-linejoin:miter;stroke-opacity:1" d="m 260.68117,326.99142 c -2.94022,-4.39242 -4.71803,-8.86549 -1.6609,-13.67306 4.59745,-0.55948 5.55337,2.61649 5.95447,6.36163 -3.6804,-0.25531 -3.32546,4.32018 -4.29357,7.31143 z" id="path21325-37" sodipodi:nodetypes="cccc"/>
    <path style="fill:#4d4d4d;stroke:#000000;stroke-width:1.78517723px;stroke-linecap:butt;stroke-linejoin:miter;stroke-opacity:1" d="m 273.13011,329.54939 c -3.67989,-3.72832 -6.23275,-7.76665 -4.09877,-13.0951 4.41344,-1.46372 5.9252,1.46461 6.99506,5.06215 -3.65984,0.48139 -2.48561,4.90325 -2.89629,8.03295 z" id="path21325-82" sodipodi:nodetypes="cccc"/>
    <path style="fill:#4d4d4d;stroke:#000000;stroke-width:1.78517723px;stroke-linecap:butt;stroke-linejoin:miter;stroke-opacity:1" d="m 287.66876,327.42762 c 3.62028,-3.79178 6.1092,-7.87419 3.89124,-13.16461 -4.43593,-1.38671 -5.90134,1.56759 -6.91405,5.18326 3.66682,0.41755 2.56263,4.85915 3.02281,7.98135 z" id="path21325-35" sodipodi:nodetypes="cccc"/>
    <path style="fill:#4d4d4d;stroke:#000000;stroke-width:1.78517723px;stroke-linecap:butt;stroke-linejoin:miter;stroke-opacity:1" d="m 119.05274,110.13188 c 3.86353,-3.51745 7.9217,-5.82942 12.78941,-3.12678 0.99859,4.74375 -1.91408,6.06535 -5.42269,6.86551 -0.13243,-3.86896 -4.43314,-3.0324 -7.36672,-3.73873 z" id="path21325-40" sodipodi:nodetypes="cccc"/>
    <path style="fill:#4d4d4d;stroke:#000000;stroke-width:1.78517723px;stroke-linecap:butt;stroke-linejoin:miter;stroke-opacity:1" d="m 136.37513,103.84028 c 5.00588,-1.10011 9.62303,-1.04744 12.623,3.79965 -1.32651,4.65431 -4.48367,4.32144 -7.9203,3.22827 1.67729,-3.44812 -2.46731,-4.91328 -4.70287,-7.02846 z" id="path21325-63" sodipodi:nodetypes="cccc"/>
    <path style="fill:#4d4d4d;stroke:#000000;stroke-width:1.78517723px;stroke-linecap:butt;stroke-linejoin:miter;stroke-opacity:1" d="m 116.49378,126.255 c 2.49274,-4.68742 5.55945,-8.31076 11.0128,-7.50785 2.47672,4.10417 0.16553,6.38707 -2.87365,8.3927 -1.37915,-3.59079 -5.15155,-1.26839 -8.13915,-0.88485 z" id="path21325-42" sodipodi:nodetypes="cccc" inkscape:transform-center-y="9.1581141"/>
    <path style="fill:#4d4d4d;stroke:#000000;stroke-width:1.78517723px;stroke-linecap:butt;stroke-linejoin:miter;stroke-opacity:1" d="m 125.54005,141.56991 c 4.89158,1.56776 9.49444,1.95094 12.89727,-2.59345 -0.92246,-4.76059 -4.09546,-4.72694 -7.61137,-3.96298 1.37514,3.59243 -2.87819,4.66053 -5.2859,6.55643 z" id="path21325-7" sodipodi:nodetypes="cccc" inkscape:transform-center-x="-7.3198582" inkscape:transform-center-y="6.7871187"/>
    <path style="fill:#4d4d4d;fill-opacity:1;stroke:#000000;stroke-width:1.78517723px;stroke-linecap:butt;stroke-linejoin:miter;stroke-opacity:1" d="m 215.3806,121.09716 -1.82923,1.4736 0.85085,2.63441 2.55234,0.17925 1.99946,-2.18798 0,-0.7592 -0.59557,-0.5357 -2.97785,-0.80382 z" id="path21475"/>
  </g>
</svg>