<?xml version="1.0" encoding="UTF-8" standalone="no"?>
<!-- Created with Inkscape (http://www.inkscape.org/) -->

<svg
   xmlns:dc="http://purl.org/dc/elements/1.1/"
   xmlns:cc="http://creativecommons.org/ns#"
   xmlns:rdf="http://www.w3.org/1999/02/22-rdf-syntax-ns#"
   xmlns:svg="http://www.w3.org/2000/svg"
   xmlns="http://www.w3.org/2000/svg"
   xmlns:sodipodi="http://sodipodi.sourceforge.net/DTD/sodipodi-0.dtd"
   xmlns:inkscape="http://www.inkscape.org/namespaces/inkscape"
   version="1.1"
   width="1052.3622"
   height="744.09448"
   viewBox="0 0 1052.3622 744.09445"
   id="图层_1"
   xml:space="preserve"
   inkscape:version="0.48.5 r10040"
   sodipodi:docname="torrorist.svg"
   inkscape:export-filename="/home/jo/Desktop/torrorist.png"
   inkscape:export-xdpi="90.040001"
   inkscape:export-ydpi="90.040001"><sodipodi:namedview
     pagecolor="#ffffff"
     bordercolor="#666666"
     borderopacity="1"
     objecttolerance="10"
     gridtolerance="10"
     guidetolerance="10"
     inkscape:pageopacity="0"
     inkscape:pageshadow="2"
     inkscape:window-width="1329"
     inkscape:window-height="655"
     id="namedview24"
     showgrid="false"
     showguides="true"
     inkscape:guide-bbox="true"
     inkscape:zoom="0.56382462"
     inkscape:cx="642.58979"
     inkscape:cy="352.72543"
     inkscape:window-x="0"
     inkscape:window-y="27"
     inkscape:window-maximized="0"
     inkscape:current-layer="图层_1" /><metadata
     id="metadata2611"><rdf:RDF><cc:Work
         rdf:about=""><dc:format>image/svg+xml</dc:format><dc:type
           rdf:resource="http://purl.org/dc/dcmitype/StillImage" /><dc:title></dc:title></cc:Work></rdf:RDF></metadata><defs
     id="defs2609" /><g
     id="g4095"
     transform="translate(35.019226,-332.94664)"><g
       transform="translate(-48.124001,450.80974)"
       id="layer3"
       style="display:inline"><g
         id="layer5"><path
           d="m 264.513,77.977773 -4.917,19.529001 c 6.965,-13.793001 18.027,-24.172001 30.729,-33.323001 -9.287,10.789 -17.754,21.579001 -22.944,32.368001 8.741,-12.292001 20.486,-19.120001 33.733,-23.627001 -17.618,15.706001 -31.60228,32.559277 -42.25528,49.494277 l -8.467,-3.687 c 1.501,-13.521 6.60928,-27.369276 14.12128,-40.754277 z"
           id="path2554"
           style="fill:#abcd03;fill-rule:evenodd;stroke:none"
           inkscape:connector-curvature="0" /><path
           d="m 241.90113,115.14152 16.116,6.68594 c 0,4.098 -0.33313,16.59703 2.22938,20.28403 26.80289,34.5191 22.29349,103.71329 -5.42951,105.48829 -42.21656,0 -58.317,-28.679 -58.317,-55.03801 0,-24.037 28.816,-40.016 46.025,-54.219 4.37,-3.824 3.61113,-12.27525 -0.62387,-23.20125 z"
           id="path2534"
           style="fill:#fffcdb;fill-rule:evenodd;stroke:none"
           inkscape:connector-curvature="0" /><path
           d="m 258.02197,121.58695 5.80803,2.96282 c -0.546,3.823 0.273,12.292 4.096,14.476 16.936,10.516 32.914,21.988 39.197,33.46 22.398,40.42601 -15.706,77.84601 -48.62,74.29501 17.891,-13.248 23.081,-40.42501 16.389,-70.06201 -2.731,-11.609 -6.966,-22.125 -14.478,-34.007 -3.25421,-5.83246 -2.11803,-13.06582 -2.39203,-21.12482 z"
           id="path2536"
           style="fill:#7d4698;fill-rule:evenodd;stroke:none"
           inkscape:connector-curvature="0" /></g><g
         id="layer4"
         style="display:inline"><path
           d="m 255.226,120.58877 12.018,1.639 c -3.551,11.745 6.966,19.939 10.38,21.852 7.64801,4.234 15.02301,8.604 20.89601,13.93 11.063,10.106 17.345,24.31 17.345,39.333 0,14.886 -6.829,29.226 -18.301,38.786 -10.789,9.014 -25.67501,12.838 -40.15201,12.838 -9.014,0 -17.072,-0.409 -25.812,-3.278 -19.939,-6.692 -34.826,-23.763 -36.055,-44.25 -1.093,-15.979 2.458,-28.134 14.887,-40.835 6.418,-6.692 19.393,-14.34 28.271,-20.486 4.371,-3.005 9.014,-11.473 0.136,-27.451 l 1.776,-1.366 13.15659,8.81203 -11.10759,-4.57803 c 0.956,1.366 3.551,7.512 4.098,9.287 1.229,5.053 0.683,9.971 -0.41,12.155 -5.599,10.107 -15.159,12.838 -22.124,18.574 -12.292,10.106 -25.676,18.164 -24.174,45.888 0.683,13.657 11.336,30.319 27.314,38.104 9.014,4.371 19.394,6.146 29.91,6.692 9.423,0.41 27.45101,-5.19 37.28401,-13.384 10.516,-8.74 16.389,-21.988 16.389,-35.508 0,-13.658 -5.463,-26.632 -15.706,-35.783 -5.873,-5.326 -15.56901,-11.745 -21.57801,-15.16 -6.009,-3.414 -13.521,-12.974 -11.063,-22.124 z"
           id="path2538"
           style="fill:#000000;fill-opacity:1;stroke:none"
           inkscape:connector-curvature="0" /><path
           d="m 251.539,140.80177 c -1.229,6.283 -2.595,17.618 -8.058,21.852 -2.322,1.638 -4.644,3.278 -7.102,4.916 -9.833,6.693 -19.667,12.974 -24.173,29.09 -0.956,3.415 -0.136,7.102 0.684,10.516 2.458,9.833 9.423,20.486 14.886,26.769 0,0.273 1.093,0.956 1.093,1.229 4.507,5.327 5.873,6.829 22.944,10.652 l -0.41,1.913 c -10.243,-2.731 -18.71,-5.189 -24.037,-11.336 0,-0.136 -0.956,-1.093 -0.956,-1.093 -5.736,-6.556 -12.702,-17.481 -15.296,-27.724 -0.956,-4.098 -1.775,-7.238 -0.683,-11.473 4.643,-16.661 14.75,-23.217 24.993,-30.182 2.322,-1.502 5.053,-2.869 7.238,-4.644 4.233,-3.14 6.554,-12.701 8.877,-20.485 z"
           id="path2540"
           style="fill:#000000;fill-opacity:1;stroke:none"
           inkscape:connector-curvature="0" /><path
           d="m 255.90625,166.74951 c 0.137,7.102 -0.55625,10.66475 1.21875,15.71875 1.092,3.004 4.782,7.1015 5.875,11.0625 1.502,5.327 3.138,11.19901 3,14.75001 0,4.09799 -0.25625,11.74249 -2.03125,19.93749 -1.35362,6.77108 -4.47323,12.58153 -9.71875,15.875 -5.37327,-1.10644 -11.68224,-2.99521 -15.40625,-6.1875 -7.238,-6.282 -13.64875,-16.7865 -14.46875,-25.9375 -0.682,-7.51099 6.27275,-18.5885 15.96875,-24.1875 8.194,-4.78 10.1,-10.22775 11.875,-18.96875 -2.458,7.648 -4.7665,14.05925 -12.6875,18.15625 -11.472,6.009 -17.3585,16.09626 -16.8125,25.65625 0.819,12.291 5.7415,20.6195 15.4375,27.3125 4.097,2.868 11.75125,5.89875 16.53125,6.71875 l 0,-0.625 c 3.62493,-0.67888 8.31818,-6.63267 10.65625,-14.6875 2.049,-7.238 2.85675,-16.502 2.71875,-22.37499 -0.137,-3.414 -1.643,-10.80801 -4.375,-17.50001 -1.502,-3.687 -3.8095,-7.37375 -5.3125,-9.96875 -1.637,-2.597 -1.64875,-8.195 -2.46875,-14.75 z"
           id="path2542"
           style="fill:#000000;fill-opacity:1;stroke:none"
           inkscape:connector-curvature="0" /><path
           d="m 255.09375,193.53076 c 0.136,4.78 2.056,10.90451 2.875,17.18751 0.684,4.64399 0.387,9.30824 0.25,13.40624 -0.13495,4.74323 -1.7152,13.24218 -3.875,17.375 -2.03673,-0.93403 -2.83294,-1.99922 -4.15625,-3.71875 -1.638,-2.322 -2.75075,-4.644 -3.84375,-7.375 -0.819,-2.049 -1.7765,-4.394 -2.1875,-7.125 -0.546,-4.097 -0.393,-10.5065 4.25,-17.06249 3.551,-5.19001 4.36475,-5.58476 5.59375,-11.59376 -1.64,5.326 -2.8625,5.869 -6.6875,10.37501 -4.233,4.917 -4.9375,12.15924 -4.9375,18.03124 0,2.459 0.9805,5.18725 1.9375,7.78125 1.092,2.732 2.02925,5.452 3.53125,7.5 2.25796,3.32082 5.14798,5.20922 6.5625,5.5625 0.009,0.002 0.022,-0.002 0.0312,0 0.0303,0.007 0.0649,0.0255 0.0937,0.0312 l 0,-0.15625 c 2.64982,-2.95437 4.24444,-5.88934 4.78125,-8.84375 0.683,-3.551 0.84,-7.10975 1.25,-11.34375 0.409,-3.551 0.11225,-8.334 -0.84375,-13.24999 -1.365,-6.146 -3.669,-12.41226 -4.625,-16.78126 z"
           id="path2544"
           style="fill:#000000;fill-opacity:1;stroke:none"
           inkscape:connector-curvature="0" /><path
           d="m 255.499,135.06577 c 0.137,7.101 0.683,20.35 2.595,25.539 0.546,1.775 5.599,9.56 9.149,18.983 2.459,6.556 3.005,12.565 3.415,14.34 1.639,7.785 -0.41,20.896 -3.142,33.324 -1.365,6.692 -6.009,15.023 -11.335,18.301 l -1.092,1.912 c 3.005,-0.137 10.379,-7.375 12.974,-16.389 4.371,-15.296 6.146,-22.398 4.098,-39.333 -0.273,-1.64 -0.956,-7.238 -3.551,-13.248 -3.824,-9.151 -9.287,-17.891 -9.969,-19.667 -1.23,-2.867 -2.869,-15.295 -3.142,-23.762 z"
           id="path2550"
           style="fill:#000000;fill-opacity:1;stroke:none"
           inkscape:connector-curvature="0" /><path
           d="m 258.06151,125.35303 c -0.40515,7.29812 -0.51351,9.98574 0.85149,15.31174 1.502,5.873 9.151,14.34 12.292,24.037 6.009,18.574 4.507,42.884 0.136,61.867 -1.638,6.691 -9.424,16.389 -17.208,19.529 l 5.736,1.366 c 3.141,-0.137 11.198,-7.648 14.34,-16.252 5.052,-13.521 6.009,-29.636 3.96,-46.571 -0.137,-1.639 -2.869,-16.252 -5.463,-22.398 -3.688,-9.15 -10.244,-17.345 -10.926,-19.119 -1.228,-3.005 -3.92651,-9.24362 -3.71849,-17.77074 z"
           id="path2552"
           style="fill:#000000;fill-opacity:1;stroke:none"
           inkscape:connector-curvature="0" /><rect
           width="0.550412"
           height="126.01891"
           x="253.71959"
           y="120.21686"
           id="rect2556"
           style="fill:#000000;fill-opacity:1;stroke:none" /></g></g><path
       d="M 51.818999,532.88451 H 161.487 c 4.096,0 7.647,3.414 7.647,7.648 v 32.367 c 0,4.234 -3.551,7.649 -7.647,7.649 h -22.534 c -5.054,0 -7.239,2.867 -7.239,6.145 v 105.98001 c 0,3.551 -2.868,6.282 -6.282,6.282 H 88.147999 c -3.415,0 -6.146,-2.731 -6.146,-6.282 V 585.73851 c 0,-3.278 -3.005,-5.189 -5.326,-5.189 h -24.857 c -4.234,0 -7.648,-3.415 -7.648,-7.649 v -32.368 c -0.001,-4.234 3.413,-7.648 7.648,-7.648 z"
       id="path2528"
       style="fill:#7d4698;fill-opacity:1;fill-rule:evenodd;stroke:none"
       inkscape:connector-curvature="0" /><path
       d="m 333.18287,575.76851 0.136,0 9.56,0 c 3.551,0 6.419,2.868 6.419,6.282 l 0,34.69 c 0,4.507 0.273,6.282 -5.19,6.282 -10.789,0 -15.705,5.736 -15.705,12.018 l 0,58.58901 c 0,2.732 -2.595,5.053 -5.736,5.053 l -34.827,0 c -3.141,0 -5.736,-2.321 -5.736,-5.053 l 0,-66.78401 c -0.0378,-1.17441 -0.0148,-2.9081 0.137,-3.823 1.912,-24.72 21.30753,-44.49786 45.888,-46.981 0.82399,-0.0832 3.73943,-0.273 5.054,-0.273 z"
       id="path2532"
       style="fill:#7d4698;fill-opacity:1;fill-rule:evenodd;stroke:none"
       inkscape:connector-curvature="0" /><path
       inkscape:connector-curvature="0"
       d="m 415.64268,575.86259 0.136,0 9.56,0 c 3.551,0 6.419,2.868 6.419,6.282 l 0,34.69 c 0,4.507 0.273,6.282 -5.19,6.282 -10.789,0 -15.705,5.736 -15.705,12.018 l 0,58.58901 c 0,2.732 -2.595,5.053 -5.736,5.053 l -34.827,0 c -3.141,0 -5.736,-2.321 -5.736,-5.053 l 0,-66.78401 c -0.0378,-1.17441 -0.0148,-2.9081 0.137,-3.823 1.912,-24.72 21.30753,-44.49786 45.888,-46.981 0.82399,-0.0832 3.73943,-0.273 5.054,-0.273 z"
       id="path2532-8"
       style="fill:#7d4698;fill-opacity:1;fill-rule:evenodd;stroke:none" /><path
       inkscape:connector-curvature="0"
       d="m 628.13393,575.83439 0.136,0 9.56,0 c 3.551,0 6.419,2.868 6.419,6.282 l 0,34.69 c 0,4.507 0.273,6.282 -5.19,6.282 -10.789,0 -15.705,5.73601 -15.705,12.018 l 0,58.58901 c 0,2.732 -2.595,5.053 -5.736,5.053 l -34.827,0 c -3.141,0 -5.736,-2.321 -5.736,-5.053 l 0,-66.784 c -0.0378,-1.17442 -0.0148,-2.90811 0.137,-3.82301 1.912,-24.72 21.30753,-44.49786 45.888,-46.981 0.82399,-0.0832 3.73943,-0.273 5.054,-0.273 z"
       id="path2532-8-1"
       style="fill:#7d4698;fill-opacity:1;fill-rule:evenodd;stroke:none" /><g
       transform="scale(0.92170835,1.0849419)"
       style="font-size:21.69883728px;font-style:normal;font-weight:normal;line-height:125%;letter-spacing:0px;word-spacing:0px;fill:#7d4698;fill-opacity:1;stroke:none;font-family:Sans"
       id="text3001"><path
         d="m 483.37319,593.98919 0,-14.75521 c -1e-5,-16.49103 5.85867,-29.14868 17.57606,-37.97296 11.71733,-8.82409 26.83417,-13.23618 45.35057,-13.23629 18.51625,1.1e-4 33.63309,4.4122 45.35057,13.23629 11.71724,8.82428 17.57592,21.48193 17.57605,37.97296 l 0,14.75521 c -1.3e-4,16.63581 -5.64182,29.36578 -16.92509,38.18996 -11.2835,8.67953 -26.61733,13.0193 -46.00153,13.0193 -19.38435,0 -34.71818,-4.33977 -46.00154,-13.0193 -11.28341,-8.82418 -16.9251,-21.55415 -16.92509,-38.18996 m 72.6911,1.73591 0,-18.22702 c -8e-5,-5.49697 -0.72337,-9.33043 -2.16988,-11.50039 -1.44667,-2.1698 -3.9782,-3.25474 -7.59459,-3.25482 -3.61654,8e-5 -6.14807,1.08502 -7.5946,3.25482 -1.44665,2.16996 -2.16994,6.00342 -2.16988,11.50039 l 0,18.22702 c -6e-5,5.7864 0.72323,9.69218 2.16988,11.71737 1.44653,2.02526 3.97806,3.03787 7.5946,3.03784 3.61639,3e-5 6.14792,-1.08491 7.59459,-3.25483 1.44651,-2.16984 2.1698,-6.0033 2.16988,-11.50038"
         style="font-size:216.9883728px;font-variant:normal;font-weight:bold;font-stretch:normal;fill:#7d4698;font-family:Rubik One;-inkscape-font-specification:Rubik One Bold"
         id="path4129" /></g><g
       transform="matrix(0.92170835,0,0,1.0849419,-4,0)"
       style="font-size:21.69883728px;font-style:normal;font-weight:normal;line-height:125%;letter-spacing:0px;word-spacing:0px;fill:#7d4698;fill-opacity:1;stroke:none;font-family:Sans"
       id="text3001-7"><path
         d="m 767.2455,643.64362 -38.84092,0 c -1.59127,0 -2.96552,-0.57864 -4.12278,-1.73591 -1.15728,-1.15727 -1.73592,-2.53153 -1.73591,-4.12278 l 0,-101.11658 c -10e-6,-1.59114 0.57863,-2.9654 1.73591,-4.12278 1.15726,-1.15716 2.53151,-1.7358 4.12278,-1.73591 l 38.84092,0 c 1.59119,1.1e-4 2.96544,0.57875 4.12277,1.73591 1.15722,1.15738 1.73585,2.53164 1.73591,4.12278 l 0,101.11658 c -6e-5,1.59125 -0.57869,2.96551 -1.73591,4.12278 -1.15733,1.15727 -2.53158,1.73591 -4.12277,1.73591 m 4.77374,-154.71271 0,26.25559 c -6e-5,1.59137 -0.5787,2.96563 -1.73591,4.12278 -1.15733,1.15739 -2.53158,1.73603 -4.12278,1.73591 l -36.67103,0 c -1.59127,1.2e-4 -2.96552,-0.57852 -4.12278,-1.73591 -1.15728,-1.15715 -1.73592,-2.53141 -1.73591,-4.12278 l 0,-26.25559 c -10e-6,-1.5911 0.57863,-2.96535 1.73591,-4.12278 1.15726,-1.15711 2.53151,-1.73575 4.12278,-1.73591 l 36.67103,0 c 1.5912,1.6e-4 2.96545,0.5788 4.12278,1.73591 1.15721,1.15743 1.73585,2.53168 1.73591,4.12278"
         style="font-size:216.9883728px;font-variant:normal;font-weight:bold;font-stretch:normal;fill:#7d4698;font-family:Rubik One;-inkscape-font-specification:Rubik One Bold"
         id="path4126"
         inkscape:connector-curvature="0" /></g><path
       inkscape:connector-curvature="0"
       id="path4121"
       style="font-size:211.58906555px;font-style:normal;font-variant:normal;font-weight:bold;font-stretch:normal;line-height:125%;letter-spacing:0px;word-spacing:0px;fill:#7d4698;fill-opacity:1;stroke:none;font-family:Rubik One;-inkscape-font-specification:Rubik One Bold"
       d="m 780.94534,663.16993 c -7e-5,-1.56943 -0.31702,-2.825 -0.95085,-3.76672 -1.64821,-2.5111 -7.73367,-4.94377 -18.25639,-7.29801 -10.52281,-2.5111 -19.08048,-6.82713 -25.67304,-12.94809 -6.46581,-6.27779 -9.69871,-14.98832 -9.6987,-26.13159 -10e-6,-11.14311 4.31053,-20.71684 12.93161,-28.72122 8.62103,-8.00415 20.22143,-12.00628 34.80123,-12.0064 14.70646,1.2e-4 26.75058,3.76683 36.13242,11.30014 9.38165,7.53355 14.07252,15.14544 14.07263,22.83572 -1.1e-4,1.72651 -0.44384,3.2175 -1.33119,4.47297 -0.7608,1.25567 -1.71165,1.88345 -2.85257,1.88337 l -31.94866,0 c -1.90178,8e-5 -4.24722,-1.25549 -7.03632,-3.76672 -2.78923,-2.51106 -4.88111,-3.76662 -6.27564,-3.76671 -2.91599,9e-5 -4.37397,1.25565 -4.37392,3.76671 -5e-5,1.56955 0.3169,2.82513 0.95086,3.76672 1.64809,2.35427 8.55761,4.63 20.7286,6.82717 12.17083,2.19733 21.23563,7.06267 27.1944,14.59602 6.08535,7.37654 9.12809,15.61623 9.12819,24.71908 -1e-4,12.7127 -4.62759,22.67879 -13.88245,29.89832 -9.25506,7.21954 -22.37683,10.8293 -39.36533,10.8293 -9.00146,0 -16.98862,-1.25557 -23.9615,-3.76671 -6.97296,-2.51115 -12.29772,-5.65007 -15.97434,-9.4168 -7.2265,-7.37646 -10.83974,-14.28211 -10.83973,-20.71693 -10e-6,-1.72639 0.44373,-3.21737 1.33119,-4.47299 0.88746,-1.25553 1.96509,-1.88331 3.23291,-1.88335 l 33.08969,0 c 1.77489,4e-5 4.05693,1.25561 6.84615,3.76672 2.9159,2.35423 5.64167,3.53132 8.17733,3.53129 2.53555,3e-5 3.80335,-1.17706 3.80342,-3.53129" /><path
       inkscape:connector-curvature="0"
       id="path4123"
       style="font-size:211.58906555px;font-style:normal;font-variant:normal;font-weight:bold;font-stretch:normal;line-height:125%;letter-spacing:0px;word-spacing:0px;fill:#7d4698;fill-opacity:1;stroke:none;font-family:Rubik One;-inkscape-font-specification:Rubik One Bold"
       d="m 900.09025,615.85056 0,25.89617 c -8e-5,7.84737 2.72572,11.77103 8.17732,11.77099 l 17.30552,0 c 1.39445,4e-5 2.5989,0.62782 3.61325,1.88336 1.01418,1.25561 1.52127,2.7466 1.52136,4.47297 l 0,30.83999 c -9e-5,1.72642 -0.50718,3.21741 -1.52136,4.47298 -1.01435,1.25557 -2.2188,1.88335 -3.61325,1.88335 l -21.48931,0 c -31.69512,0 -47.54266,-16.87173 -47.54264,-50.61525 l 0,-30.60456 -15.02348,0 c -1.39459,8e-5 -2.599,-0.62771 -3.61324,-1.88337 -1.01425,-1.25549 -1.52137,-2.74647 -1.52137,-4.47297 l 0,-28.4858 c 0,-1.72628 0.50712,-3.21728 1.52137,-4.47297 1.01424,-1.25544 2.21865,-1.88323 3.61324,-1.88335 l 15.02348,0 0,-38.37343 c -2e-5,-1.72625 0.5071,-3.21724 1.52137,-4.47297 1.01422,-1.25541 2.21863,-1.88319 3.61324,-1.88336 l 33.2799,0 c 1.39445,1.7e-4 2.5989,0.62795 3.61325,1.88336 1.01418,1.25573 1.52127,2.74672 1.52135,4.47297 l 0,38.37343 23.96149,0 c 1.39445,1.2e-4 2.59889,0.62791 3.61325,1.88335 1.01408,1.25569 1.52126,2.74669 1.52135,4.47297 l 0,28.4858 c -9e-5,1.7265 -0.50727,3.21748 -1.52135,4.47297 -1.01436,1.25566 -2.2188,1.88345 -3.61325,1.88337 l -23.96149,0" /></g></svg>